<?xml version="1.0" encoding="UTF-8" standalone="no"?>
<!-- Created with Inkscape (http://www.inkscape.org/) -->

<svg
   width="211.11497mm"
   height="75.412125mm"
   viewBox="0 0 211.11497 75.412125"
   version="1.1"
   id="svg1"
   xml:space="preserve"
   xmlns:inkscape="http://www.inkscape.org/namespaces/inkscape"
   xmlns:sodipodi="http://sodipodi.sourceforge.net/DTD/sodipodi-0.dtd"
   xmlns="http://www.w3.org/2000/svg"
   xmlns:svg="http://www.w3.org/2000/svg"><sodipodi:namedview
     id="namedview1"
     pagecolor="#ffffff"
     bordercolor="#000000"
     borderopacity="0.25"
     inkscape:showpageshadow="2"
     inkscape:pageopacity="0.0"
     inkscape:pagecheckerboard="0"
     inkscape:deskcolor="#d1d1d1"
     inkscape:document-units="mm"
     inkscape:zoom="1.654314"
     inkscape:cx="271.71384"
     inkscape:cy="474.2147"
     inkscape:window-width="3840"
     inkscape:window-height="2071"
     inkscape:window-x="-9"
     inkscape:window-y="-9"
     inkscape:window-maximized="1"
     inkscape:current-layer="layer1" /><defs
     id="defs1" /><g
     inkscape:label="Layer 1"
     inkscape:groupmode="layer"
     id="layer1"
     transform="translate(-9.4359019,-66.930353)"><path
       style="display:inline;opacity:1;fill:#000000;fill-opacity:1;stroke-width:2.07219;paint-order:markers stroke fill"
       d="m 20.670291,85.03456 c 11.472349,-5.891907 4.05783,1.244445 6.14691,1.091599 2.089081,-0.152845 4.296035,-1.041957 5.722988,-1.945233 1.426952,-0.903276 1.442466,-2.522747 2.755512,-3.051295 1.313046,-0.528549 0.975998,1.038573 4.027285,-0.01831 3.051287,-1.05688 6.743098,-9.14467 10.598123,-9.164493 3.855025,-0.01952 3.235168,4.055794 4.663172,3.977194 1.428005,-0.07859 -0.350278,-0.868508 0.847854,-0.963474 1.198131,-0.09495 2.263518,2.723431 4.027286,3.020474 1.763768,0.297043 3.118031,-1.541613 4.875134,-1.30165 1.757104,0.239963 2.731103,2.507806 4.239251,2.699641 1.508149,0.191835 2.44022,-0.992052 3.3914,-0.975036 0.95118,0.01698 0.362814,0.780311 1.907661,0.631069 1.544848,-0.149242 3.604304,-2.147863 5.722988,-3.384653 2.118684,-1.236791 5.187902,-3.355862 6.994759,-4.030175 1.806856,-0.674313 1.372578,0.02016 3.179436,-0.654192 1.806858,-0.674313 3.216473,-4.1933 6.99476,-4.030184 3.77829,0.163116 7.32118,7.107642 9.96225,7.311747 2.64107,0.204105 0.52398,-0.981952 1.69569,-0.807387 1.17171,0.174564 1.87939,3.163877 2.96747,3.185221 1.08809,0.02135 -0.60151,-0.848786 0.84785,-0.803534 1.44936,0.04521 2.16579,3.765726 4.0273,4.619824 1.8615,0.854099 4.29812,-0.204197 5.72297,0.453787 1.42486,0.657983 0.23491,1.334122 2.33159,2.708302 2.09668,1.374179 7.90016,3.99128 11.23402,3.947326 3.33386,-0.04395 4.84894,-2.393091 6.78279,-2.589801 1.93385,-0.19671 3.23848,0.96642 4.02729,0.621434 0.7888,-0.344985 -0.77512,-0.503726 0.42392,-0.961537 1.19904,-0.45781 3.83404,1.566813 6.35887,1.570457 2.52483,0.0036 6.31805,-0.963519 8.05458,-1.955842 1.73653,-0.992323 1.01053,-2.108763 2.54355,-2.890392 1.53301,-0.781628 3.24299,-1.178821 6.35887,-0.988524 3.11587,0.190297 10.38615,2.991561 11.44597,3.306623 1.05982,0.315063 10.38617,0.592531 14.41345,2.653385 4.02729,2.060854 5.29906,2.534873 6.99477,2.687105 1.69571,0.152233 8.4239,-0.43005 10.81008,1.390284 2.38617,1.820333 0.63589,5.434901 1.48374,7.030411 0.84785,1.59551 5.29905,32.922599 5.29905,36.441179 0,3.51858 -211.1145995,8.47657 -211.1145995,8.47657 0,0 -0.2383381,-51.416017 11.2340105,-57.307924 z"
       id="path3"
       sodipodi:nodetypes="zzzzzzzzzzzzzzzzzzzzzzzzzzzzzzzzzzzzzscz" /></g></svg>
