<?xml version="1.0" encoding="UTF-8" standalone="no"?>
<!-- Created with Inkscape (http://www.inkscape.org/) -->

<svg
   width="21.490149mm"
   height="19.873526mm"
   viewBox="0 0 21.490148 19.873525"
   version="1.1"
   id="svg1"
   xml:space="preserve"
   sodipodi:docname="logo2.svg"
   xmlns:inkscape="http://www.inkscape.org/namespaces/inkscape"
   xmlns:sodipodi="http://sodipodi.sourceforge.net/DTD/sodipodi-0.dtd"
   xmlns="http://www.w3.org/2000/svg"
   xmlns:svg="http://www.w3.org/2000/svg"><sodipodi:namedview
     id="namedview1"
     pagecolor="#ffffff"
     bordercolor="#000000"
     borderopacity="0.25"
     inkscape:showpageshadow="2"
     inkscape:pageopacity="0.0"
     inkscape:pagecheckerboard="0"
     inkscape:deskcolor="#d1d1d1"
     inkscape:document-units="mm" /><defs
     id="defs1" /><g
     inkscape:label="Layer 1"
     inkscape:groupmode="layer"
     id="layer1"
     transform="translate(-75.900671,-123.38265)"><rect
       style="display:none;fill:#c20202;fill-opacity:1;stroke:#ffffff;stroke-width:2.322;stroke-dasharray:none;stroke-opacity:1;paint-order:markers stroke fill"
       id="rect1"
       width="187.8441"
       height="97.240715"
       x="4.5581584"
       y="76.129242" /><ellipse
       style="fill:#ffffff;fill-opacity:1;stroke:none;stroke-width:0.148998;stroke-linecap:round;stroke-linejoin:round;stroke-dasharray:none;stroke-opacity:1;paint-order:markers stroke fill"
       id="path2"
       cx="86.639069"
       cy="129.49406"
       rx="10.730151"
       ry="0.67148286"
       inkscape:export-filename="logo.svg"
       inkscape:export-xdpi="96"
       inkscape:export-ydpi="96" /><ellipse
       style="fill:#ffffff;fill-opacity:1;stroke:none;stroke-width:0.148998;stroke-linecap:round;stroke-linejoin:round;stroke-dasharray:none;stroke-opacity:1;paint-order:markers stroke fill"
       id="path2-5"
       cx="86.660667"
       cy="133.80664"
       rx="10.730151"
       ry="0.67148286" /><ellipse
       style="fill:#ffffff;fill-opacity:1;stroke:none;stroke-width:0.148998;stroke-linecap:round;stroke-linejoin:round;stroke-dasharray:none;stroke-opacity:1;paint-order:markers stroke fill"
       id="path2-5-9"
       cx="86.630821"
       cy="137.77708"
       rx="10.730151"
       ry="0.67148286" /><path
       style="fill:#c20202;fill-opacity:1;stroke:#ffffff;stroke-width:1.132;stroke-linecap:round;stroke-dasharray:none;stroke-opacity:1;paint-order:markers stroke fill"
       d="m 86.40116,142.67888 c 0,0 0.06352,-0.10183 0.153597,-0.16864 0.09007,-0.0668 0.372466,-0.1737 0.401538,-0.19122 0.0291,-0.0175 0.369531,-0.33981 0.452566,-0.42485 0.08303,-0.085 0.05788,-0.0341 0.06159,-0.0688 0.0037,-0.0346 -0.06581,-0.0213 -0.05793,-0.10137 0.0079,-0.08 0.225417,-0.14736 0.239551,-0.27589 0.01426,-0.12852 -0.199416,-0.2036 -0.195332,-0.36102 0.0041,-0.15742 0.26691,-0.349 0.278338,-0.45619 0.01138,-0.1072 0.009,-0.0864 -0.03697,-0.10611 -0.04614,-0.0198 -0.117771,0.10147 -0.171688,0.0781 -0.05394,-0.0234 -0.05588,-0.12167 -0.05245,-0.15543 0.0034,-0.0338 0.07767,-0.42882 0.106063,-0.43958 0.02835,-0.0107 0.242161,-0.26099 0.276175,-0.36771 0.034,-0.10672 -0.0034,-0.15504 -0.0057,-0.21211 -0.0023,-0.0571 -0.0337,-0.0716 -0.0072,-0.13038 0.02645,-0.0587 0.09213,-0.16806 0.123944,-0.21259 0.03179,-0.0445 0.07528,-0.28456 0.08377,-0.42137 0.0083,-0.13683 0.0017,-0.31611 -0.02844,-0.39183 -0.03008,-0.0757 -0.02859,-0.0595 -0.06069,-0.0743 -0.03209,-0.0149 -0.04288,0.0734 -0.116178,0.002 -0.0733,-0.0716 0.0081,-0.34813 -0.004,-0.49853 -0.01206,-0.15038 -0.01423,-0.31989 -0.06152,-0.40201 -0.04729,-0.0821 -0.08758,-0.0857 -0.12616,-0.10147 -0.03855,-0.0159 -0.07909,0.0397 -0.0878,-0.009 -0.0087,-0.0486 -0.01384,-0.12935 0.0037,-0.17021 0.0175,-0.0408 0.03452,-0.013 0.06833,-0.0681 0.03379,-0.0552 0.08823,-0.26398 0.0896,-0.27749 l 0.03499,-0.34443 c 0.0024,-0.0237 -0.275834,-0.36787 -0.178973,-0.45489 0.09687,-0.0871 0.02069,0.26079 0.259176,0.1355 0.238515,-0.12529 0.210191,-1.02557 0.160763,-1.31426 -0.0494,-0.28867 -0.114337,-0.34457 -0.192588,-0.38803 -0.07825,-0.0434 -0.07103,0.0437 -0.103367,0.01 -0.03234,-0.0337 0.01539,-0.11785 0.0246,-0.17491 0.0092,-0.0571 0.04924,-0.11467 0.03064,-0.16748 -0.01865,-0.0529 -0.11024,-0.07 -0.125479,-0.10823 -0.01521,-0.0383 -0.0079,-0.0629 0.0082,-0.0811 0.01611,-0.0182 0.0459,0.004 0.06285,-0.0141 0.0169,-0.0176 0.02851,-0.0453 0.015,-0.0804 -0.0135,-0.0351 -0.08706,-0.0291 -0.114024,-0.0867 -0.02697,-0.0575 -0.02047,-0.17037 0.01052,-0.23775 0.03098,-0.0674 0.14504,-0.0898 0.150853,-0.14162 0.0057,-0.0518 -0.02889,0.0277 -0.0593,-0.088 -0.03041,-0.11559 0.07698,-0.44445 0.04825,-0.60922 -0.02874,-0.16477 -0.253687,-0.28358 -0.161559,-0.35759 0.09213,-0.074 0.172802,0.21343 0.253688,0.18954 0.08088,-0.0238 0.08826,-0.0737 0.06578,-0.17755 -0.02247,-0.10391 -0.309432,-0.20233 -0.315633,-0.31865 -0.0062,-0.11633 0.165858,-0.1272 0.156347,-0.19565 -0.0095,-0.0684 -0.100564,0.0544 -0.133598,-0.0955 -0.03304,-0.14991 0.436219,-0.4907 0.373893,-0.65802 -0.06232,-0.16732 -0.292361,-0.0774 -0.296371,-0.10518 -0.004,-0.0276 -0.01259,-0.14457 -0.0031,-0.1709 0.0095,-0.0264 0.08155,-0.0674 0.11434,-0.11803 0.03281,-0.0507 0.08548,-0.13104 0.07325,-0.18362 -0.01223,-0.0526 -0.07526,-0.034 -0.09376,-0.0846 -0.01855,-0.0505 0.04151,-0.15529 0.02666,-0.19516 -0.01488,-0.0399 -0.0078,0.0817 -0.04382,-0.0386 -0.03598,-0.12033 0.233203,-0.53321 0.1841,-0.67047 -0.0491,-0.13725 -0.103603,-0.049 -0.146421,-0.10352 -0.04283,-0.0546 -0.08341,-0.14412 -0.0868,-0.22035 -0.0034,-0.0762 0.05716,-0.14161 0.0625,-0.212 0.0054,-0.0703 0.0075,-0.17361 -0.02736,-0.20066 -0.0349,-0.0271 -0.03609,0.0362 -0.06215,0.007 -0.02605,-0.0289 0.06345,-0.12812 0.03743,-0.16678 -0.02608,-0.0387 -0.03006,0.0994 -0.107354,-0.0179 -0.07733,-0.11717 0.142284,-0.51582 0.17471,-0.71237 0.0324,-0.19653 0.09618,-0.39196 0.03988,-0.45995 -0.05629,-0.0679 -0.03161,0.0327 -0.06753,-0.007 -0.03592,-0.0395 0.04299,-0.20871 -0.0017,-0.25263 -0.0446,-0.0439 -0.09856,0.0345 -0.122931,0.001 -0.02439,-0.0334 0.01432,0.0567 0.03934,-0.11883 0.02507,-0.17556 -0.03708,-0.91129 -0.03434,-0.93831 0.0027,-0.0271 -0.0091,-0.58469 -0.05023,-0.71473 -0.0411,-0.13005 -0.02211,-0.0598 -0.05255,-0.0873 -0.03042,-0.0274 -0.08579,-0.0318 -0.130278,-0.061 -0.0445,-0.0292 -0.08273,-0.0375 -0.131536,-0.11571 -0.04882,-0.0782 -0.06499,-0.26989 -0.09941,-0.36493 -0.03439,-0.0951 -0.0614,-0.17562 -0.09492,-0.20752 -0.0335,-0.0319 -0.01891,-0.0155 -0.04589,-0.0182 -0.02699,-0.003 -0.22126,0.0733 -0.277701,0.0469 -0.05644,-0.0264 -0.04096,-0.0276 -0.04648,-0.0798 -0.0055,-0.0521 0.05917,-0.14542 0.06923,-0.21133 0.01001,-0.0659 0.04213,-0.15167 -0.0024,-0.17765 -0.04455,-0.026 -0.103365,0.01 -0.115611,0.0633 -0.01225,0.0533 -0.06788,0.6188 -0.196236,0.6556 -0.12835,0.0368 -0.01711,-0.0956 -0.0877,-0.0771 -0.07059,0.0186 -0.102414,0.26936 -0.105843,0.30313 -0.0034,0.0338 -0.07523,0.60647 -0.07797,0.63348 -0.0027,0.0271 0.04448,0.12125 0.05508,0.19665 0.01061,0.0755 0.04946,0.21401 0.0016,0.25265 -0.04781,0.0386 -0.07744,-0.0474 -0.113439,-0.0252 -0.03598,0.0221 -0.04427,0.0691 -0.03397,0.13303 0.01027,0.064 0.117345,0.1496 0.13544,0.21164 0.01809,0.062 0.02091,0.0938 -2.29e-4,0.13643 -0.02112,0.0426 -0.113021,0.0451 -0.118353,0.0903 -0.0053,0.0453 0.04661,0.0118 0.07887,0.0968 0.03231,0.0846 0.02843,0.25797 0.01894,0.41815 -0.0095,0.16017 -0.0859,0.50986 -0.08865,0.53687 -0.0027,0.0271 -0.148483,0.7901 -0.166108,0.82924 -0.01763,0.0392 -0.05436,0.23455 -0.121309,0.2538 -0.06694,0.0192 -0.07664,-0.083 -0.115393,-0.0731 -0.03876,0.01 -0.04035,0.0417 -0.05012,0.0904 -0.0099,0.0487 0.04361,0.15345 0.02131,0.19322 -0.0223,0.0399 -0.02879,-0.0256 -0.07167,0.0337 -0.04286,0.0593 -0.04013,0.22607 -0.04312,0.35726 -0.003,0.13119 0.0606,0.34028 0.03176,0.42628 -0.02884,0.086 -0.05742,0.0538 -0.07714,0.0877 -0.01974,0.034 -0.0093,-0.0246 -0.03868,0.11207 -0.02939,0.13657 -0.06321,0.68957 -0.06595,0.71658 -0.0027,0.0271 0.05222,0.11958 0.03825,0.16083 -0.01393,0.0412 -0.05733,0.0163 -0.0744,0.0607 -0.01704,0.0443 0.02251,0.1398 0.02876,0.18714 0.0062,0.0474 0.01328,0.0553 0.01065,0.0966 -0.0025,0.0413 -0.01115,0.12364 -0.03534,0.14652 -0.02428,0.0229 -0.02114,-0.0251 -0.04864,0.009 -0.02752,0.0338 0.0017,0.1844 0.0057,0.2121 0.004,0.0278 0.01409,0.0816 -0.0056,0.12226 -0.01966,0.0407 -0.07506,0.0595 -0.112284,0.0978 -0.03723,0.0383 -0.09336,0.0606 -0.108961,0.13223 -0.01561,0.0716 0.08758,0.19485 0.06917,0.25949 -0.01842,0.0647 -0.07427,0.0646 -0.09809,0.0924 -0.02383,0.0278 -0.04532,0.0431 -0.04807,0.0702 -0.0027,0.0271 0.04816,0.0789 0.06869,0.1298 0.02053,0.051 -0.0043,0.14286 -0.007,0.16988 -0.0027,0.0271 -0.29876,1.86894 -0.341167,1.98168 -0.04241,0.11276 -0.03432,0.1364 -0.09569,0.0688 -0.06137,-0.0676 -0.02456,-0.11739 -0.07075,-0.10953 -0.04619,0.008 -0.03937,0.11882 -0.03535,0.14653 0.004,0.0277 -0.02247,0.0421 0.03081,0.16689 0.05327,0.12478 0.432527,0.38501 0.376783,0.52274 -0.05574,0.13772 -0.182244,-0.0337 -0.243235,0.0434 -0.06101,0.0773 0.06374,0.28354 0.01973,0.34317 -0.04401,0.0597 -0.04673,-0.0477 -0.09799,0.0242 -0.05125,0.0719 0.06459,0.30873 0.03851,0.42698 -0.02608,0.11823 -0.108997,0.18791 -0.149008,0.25779 -0.04002,0.0699 -0.09477,0.12685 -0.09145,0.16131 0.0033,0.0345 0.08925,0.004 0.122149,0.0738 0.03291,0.0697 -0.03445,0.23873 -0.04575,0.31605 -0.01137,0.0773 -0.02585,0.10087 -0.02186,0.1479 0.004,0.0469 0.03315,0.0758 0.04167,0.12706 0.0085,0.0511 -0.01294,0.13217 0.0024,0.17766 0.01544,0.0455 0.06526,0.0535 0.06605,0.0886 7.61e-4,0.0351 -0.02688,0.0222 -0.0562,0.083 -0.02931,0.0608 -0.03814,0.22557 -0.09097,0.29099 -0.05284,0.0655 -0.138572,0.0424 -0.173756,0.0984 -0.03518,0.0559 -0.02697,0.0819 -0.01313,0.19654 0.01385,0.1146 0.166947,0.37179 0.1499,0.4724 -0.01705,0.10062 -0.125898,0.16462 -0.129329,0.1984 -0.0034,0.0338 -0.0083,0.30168 -0.0013,0.41609 0.007,0.11443 0.0081,0.21926 0.03402,0.26957 0.02593,0.0503 0.05879,0.012 0.04991,0.0461 -0.0089,0.0342 -0.0703,-0.0471 -0.139875,0.0335 -0.06958,0.0807 -0.09114,0.39698 -0.04331,0.49371 0.04782,0.0967 0.08969,-0.0103 0.128225,0.0812 0.03854,0.0915 -0.04177,0.32116 -0.09188,0.43421 -0.05011,0.11303 -0.194125,0.0975 -0.174655,0.24154 0.01947,0.1441 0.440268,0.23653 0.447966,0.35939 0.0077,0.12286 -0.107961,0.0764 -0.114342,0.11802 -0.0065,0.0418 0.03189,0.0483 0.03973,0.0791 0.0078,0.031 -0.01151,0.0727 0.0032,0.10267 0.01474,0.03 0.05886,0.0172 0.07556,0.0623 0.01668,0.0451 -6.98e-4,0.16055 -0.0327,0.18773 -0.03202,0.0272 -0.03178,-0.0704 -0.06149,7.9e-4 -0.0297,0.071 0.252332,0.21386 0.277853,0.28752 0.02552,0.0737 -0.03536,0.0168 -0.0069,0.0675 0.02849,0.0508 0.223587,0.0755 0.253798,0.12127 0.03022,0.0458 -0.04945,-0.005 0.002,0.0479 0.0514,0.0528 0.336881,0.0737 0.393082,0.0264 0.05622,-0.0475 -0.0099,-0.0329 0.0048,-0.0473 0.0147,-0.0144 0.04613,-0.0301 0.07566,-0.006 0.02954,0.0242 0.03419,0.093 0.01867,0.15202 -0.01555,0.059 -0.162629,0.0791 -0.126582,0.17138 0.03604,0.0923 0.282476,0.0605 0.374777,0.0722 0.09234,0.0114 0.124969,0.0177 0.176307,0.0109 0.05132,-0.007 0.05402,-0.0173 0.127054,-0.0417 0.07304,-0.0243 0.310888,-0.1049 0.310888,-0.1049"
       id="path1"
       sodipodi:nodetypes="czzzzzzzzzzzzzzzzzzzzzzzzzzzzzzzzzzzzzzzzzzzzzzzzzzzzzzzzzzzzzzzzzzzzzzzzzzzzzzzzzzzzzzzzzzzzzzzzzzzzzzzzzzzzzzzzzzzzzzzzzzzzzzzzzzzzzzzzzzzzzzzzzzzzzzzzzzzzzzzzzzzzzzzzzzzzzzzzc" /></g></svg>
