<?xml version="1.0" encoding="UTF-8" standalone="no"?>
<!-- Created with Inkscape (http://www.inkscape.org/) -->

<svg
   width="199.86044mm"
   height="52.264629mm"
   viewBox="0 0 199.86044 52.264629"
   version="1.1"
   id="svg1"
   xml:space="preserve"
   xmlns:inkscape="http://www.inkscape.org/namespaces/inkscape"
   xmlns:sodipodi="http://sodipodi.sourceforge.net/DTD/sodipodi-0.dtd"
   xmlns="http://www.w3.org/2000/svg"
   xmlns:svg="http://www.w3.org/2000/svg"><sodipodi:namedview
     id="namedview1"
     pagecolor="#ffffff"
     bordercolor="#000000"
     borderopacity="0.25"
     inkscape:showpageshadow="2"
     inkscape:pageopacity="0.0"
     inkscape:pagecheckerboard="0"
     inkscape:deskcolor="#d1d1d1"
     inkscape:document-units="mm"
     inkscape:zoom="1.654314"
     inkscape:cx="271.71384"
     inkscape:cy="474.2147"
     inkscape:window-width="3840"
     inkscape:window-height="2071"
     inkscape:window-x="-9"
     inkscape:window-y="-9"
     inkscape:window-maximized="1"
     inkscape:current-layer="layer1" /><defs
     id="defs1" /><g
     inkscape:label="Layer 1"
     inkscape:groupmode="layer"
     id="layer1"
     transform="translate(-15.083712,-87.665957)"><path
       style="display:inline;fill:#fafafa;fill-opacity:1;stroke-width:1.8;paint-order:markers stroke fill"
       d="m 213.6957,119.29848 c -0.13696,-0.80393 -0.4074,-1.58674 -0.4798,-2.39903 -0.12071,-1.35434 0.8858,-2.98313 0.08,-4.07835 -0.50992,-0.69307 -1.6546,-0.47323 -2.47899,-0.71971 -1.38946,-0.41543 -2.88327,-0.58852 -4.15832,-1.27949 -0.36608,-0.19838 -0.55347,-0.70793 -0.95962,-0.79967 -1.15404,-0.26067 -2.31553,1.25171 -3.43861,0.87964 -0.68366,-0.22649 -0.65557,-1.52686 -1.35945,-1.67932 -0.40777,-0.0883 -0.70434,0.60089 -1.11954,0.55978 -0.30245,-0.0299 -0.41591,-0.56856 -0.71971,-0.55978 -0.28324,0.008 -0.35732,0.58285 -0.63974,0.55978 -0.58509,-0.0478 -0.53388,-1.31943 -1.11955,-1.35945 -0.47049,-0.0322 -0.6604,0.67921 -1.03958,0.95961 -0.29775,0.22018 -0.59045,0.5307 -0.95962,0.55977 -0.51322,0.0404 -0.92707,-0.6101 -1.43941,-0.55977 -0.34589,0.034 -0.5787,0.38593 -0.87965,0.55977 -0.59879,0.34588 -1.14791,0.94431 -1.83925,0.95961 -0.44113,0.01 -0.85949,-0.27858 -1.19952,-0.55977 -0.4561,-0.37718 -0.44776,-1.44628 -1.03958,-1.43942 -0.51753,0.006 -0.36272,1.25362 -0.87964,1.27948 -0.45337,0.0227 -0.42689,-1.07216 -0.87965,-1.03958 -0.25083,0.018 -0.14907,0.6209 -0.39984,0.63975 -0.49013,0.0368 -0.46836,-1.13555 -0.95961,-1.11955 -0.66604,0.0217 -0.67058,1.19399 -1.19951,1.59935 -0.34181,0.26195 -0.83279,0.70555 -1.19952,0.47981 -0.52407,-0.32259 0.41482,-1.61933 -0.15994,-1.83926 -0.546,-0.20892 -0.73213,1.4049 -1.27948,1.19952 -0.25082,-0.0941 0.13911,-0.64554 -0.08,-0.79968 -0.26967,-0.18971 -0.76768,-0.0282 -0.95961,0.2399 -0.18685,0.26099 0.34579,0.77965 0.08,0.95961 -0.4442,0.30075 -0.99123,-0.42493 -1.43942,-0.7197 -0.5532,-0.36384 -0.86819,-1.39927 -1.51939,-1.27949 -0.26991,0.0496 -0.12804,0.68164 -0.39983,0.71971 -0.37333,0.0523 -0.42295,-0.78623 -0.79968,-0.79967 -0.52877,-0.0189 -0.67342,1.09587 -1.19952,1.03957 -0.53009,-0.0567 -0.43038,-1.21525 -0.95961,-1.27948 -0.37609,-0.0456 -0.53043,0.5728 -0.87964,0.71971 -0.22249,0.0936 -0.5034,0.18713 -0.71971,0.08 -0.41785,-0.20694 -0.2584,-1.13155 -0.71971,-1.19952 -0.39204,-0.0578 -0.49192,0.71784 -0.87964,0.79968 -0.24743,0.0522 -0.51031,-0.0981 -0.71971,-0.2399 -0.37589,-0.25449 -0.46209,-0.86154 -0.87965,-1.03958 -0.39308,-0.16761 -0.88998,-0.0958 -1.27948,0.08 -0.27488,0.12405 -0.37001,0.50486 -0.63974,0.63974 -0.16859,0.0843 -0.4114,0.19624 -0.55978,0.08 -0.21088,-0.16521 0.15461,-0.67036 -0.08,-0.79967 -0.41761,-0.23016 -0.84138,0.828 -1.27948,0.63974 -0.58879,-0.25301 0.0811,-1.83591 -0.55977,-1.83926 -0.53111,-0.003 0.0406,1.41316 -0.47981,1.51939 -0.48158,0.0983 -0.4899,-1.26431 -0.95961,-1.11955 -0.23067,0.0711 0.13046,0.60151 -0.08,0.71971 -0.38471,0.21607 -0.76031,-0.6021 -1.19951,-0.55977 -0.36089,0.0348 -0.52135,0.5843 -0.87965,0.63974 -0.41651,0.0644 -0.94104,-0.0669 -1.19951,-0.39984 -0.22944,-0.29552 0.26733,-0.98049 -0.08,-1.11955 -0.36788,-0.14729 -0.48462,0.831 -0.87965,0.79968 -0.51044,-0.0405 -0.45361,-1.27795 -0.95961,-1.19952 -0.36689,0.0569 -0.0448,0.93112 -0.39984,1.03958 -0.31118,0.0951 -0.66265,-0.26466 -0.79967,-0.55977 -0.12399,-0.26704 0.2567,-0.64414 0.08,-0.87964 -0.66828,-0.89067 -2.21951,-0.29616 -3.27867,-0.63975 -0.78273,-0.25392 -1.43633,-0.85872 -2.2391,-1.03958 -1.57139,-0.35402 -3.54876,0.6582 -4.83216,-0.0412 -1.2834,-0.6994 -3.31136,-7.321829 -3.69694,-7.440319 -0.95643,-0.29392 -1.07776,-1.69774 -1.91923,-2.2391 -0.61229,-0.39391 -1.27251,-0.83489 -1.99919,-0.87965 -0.27777,-0.0171 -0.55171,0.11356 -0.79967,0.23991 -0.62702,0.31951 -1.06963,0.92802 -1.67932,1.27948 -0.30022,0.17306 -0.6132,0.408733 -0.95962,0.399843 -0.67937,-0.0174 -1.26982,-0.508713 -1.83926,-0.879653 -0.61776,-0.40241 -1.08516,-1.00292 -1.67932,-1.43942 -0.20266,-0.14888 -0.38827,-0.39857 -0.63974,-0.39983 -0.5623,-0.003 -0.91884,0.66707 -1.43942,0.87964 -0.65849,0.26888 -1.38891,0.30818 -2.07916,0.47981 -0.40158,0.0999 -0.78799,0.27637 -1.19951,0.31987 -0.53083,0.0561 -1.11146,0.13653 -1.59936,-0.08 -0.27565,-0.12233 -0.39115,-0.46901 -0.63974,-0.63974 -0.21641,-0.14863 -0.50573,-0.16777 -0.71971,-0.31987 -0.4765,-0.3387 -0.6504,-1.07888 -1.19951,-1.27949 -0.42857,-0.15657 -0.91063,0.0778 -1.35945,0.15994 -0.54055,0.099 -1.09796,0.62474 -1.59936,0.39984 -0.57657,-0.25863 -0.35791,-1.32279 -0.87964,-1.679323 -0.19929,-0.136188 -0.48004,-0.10864 -0.71971,-0.07997 -0.30979,0.03706 -0.57789,0.240579 -0.87965,0.319871 -0.31364,0.08241 -0.63535,0.156166 -0.95961,0.159935 -0.18847,0.0022 -0.39118,0.0043 -0.55977,-0.07997 -0.2023,-0.101152 -0.30723,-0.333607 -0.47981,-0.479806 -0.17496,-0.148215 -0.38481,-0.251624 -0.55977,-0.399839 -0.20134,-0.170565 -0.38513,-0.361949 -0.55977,-0.559773 -0.20114,-0.227846 -0.30512,-0.553821 -0.55978,-0.719709 -0.18418,-0.119976 -0.43242,-0.0869 -0.63974,-0.159936 -0.35997,-0.126807 -0.65848,-0.500407 -1.03958,-0.479806 -0.1552,0.0084 -0.27421,0.14838 -0.39984,0.239903 -0.22902,0.166852 -0.43827,0.360523 -0.63974,0.559774 -0.4832,0.477879 -0.76027,1.198712 -1.35945,1.519386 -0.16618,0.08894 -0.38754,0.0034 -0.55977,0.07997 -0.38048,0.169144 -0.71971,0.239903 -0.95962,0.799677 -0.2399,0.559776 -0.35978,1.035676 -0.79967,1.279486 -0.39634,0.21967 -0.91448,0.0857 -1.35945,0 -0.70478,-0.13573 -1.35802,-0.47714 -1.9992,-0.79968 -0.36348,-0.18285 -0.67087,-0.467648 -1.03957,-0.639741 -0.45829,-0.213914 -0.95586,-0.33161 -1.43942,-0.479806 -0.66165,-0.202775 -1.36362,-0.286012 -1.999186,-0.559774 -0.14275,-0.06149 -0.25005,-0.198414 -0.39984,-0.239903 -0.35964,-0.09962 -0.74869,0.04161 -1.11955,0 -0.59763,-0.06706 -1.27948,-0.239903 -1.75929,-0.399838 -0.4798,-0.159936 -1.522295,-0.983439 -2.319065,-0.799677 -0.66119,0.152492 -0.88008,1.055267 -1.43942,1.439418 -0.43281,0.297256 -0.94013,0.477239 -1.439414,0.639741 -0.362917,0.118119 -0.79968,-0.159935 -1.11955,0.239903 -0.319871,0.399839 -0.668702,0.763857 -1.119548,0.959617 -0.664225,0.28841 -1.502492,-0.0654 -2.159127,0.2399 -0.666789,0.31002 -3.298667,2.578963 -3.778473,2.898833 -0.479806,0.31987 -0.667181,1.643835 -0.987052,1.803775 -0.319871,0.15993 -1.941659,0.0187 -2.878838,0.2399 -0.279413,0.066 -0.540135,0.19715 -0.799677,0.31987 -0.550046,0.260083 -0.999573,0.777407 -1.599353,0.879657 -0.639342,0.10899 -1.314511,-0.554304 -1.919224,-0.31987 -0.442506,0.17155 -0.495266,0.84117 -0.879645,1.11955 -0.505382,0.36601 -1.150111,0.50455 -1.759288,0.63974 -0.888212,0.19712 -1.809082,0.24111 -2.718904,0.2399 -0.588847,-7.8e-4 -1.199993,0.0243 -1.759288,-0.15993 -0.829339,-0.27314 -1.464217,-0.957 -2.239095,-1.35946 -0.413126,-0.21457 -0.82382,-0.46446 -1.279483,-0.559774 -0.44355,-0.0928 -1.039579,-0.15994 -1.35945,0 -0.319871,0.159934 -1.439421,0.239904 -1.759291,0.239904 -0.319871,0 -1.013469,-0.751607 -1.599354,-0.959617 -0.355245,-0.12613 -0.744622,-0.12071 -1.119547,-0.15994 -0.398551,-0.0417 -0.817104,0.0398 -1.199515,-0.08 -0.444976,-0.13936 -0.79524,-0.48736 -1.199515,-0.71971 -0.527515,-0.30318 -0.992058,-0.84246 -1.599353,-0.87965 -0.143278,-0.009 -0.159935,-0.15993 -0.399838,0.15994 -0.239903,0.31987 -0.807681,0.62545 -1.279483,0.79968 -0.505704,0.18675 -1.07812,0.10234 -1.599356,0.2399 -0.358983,0.0947 -0.761437,0.15391 -1.03958,0.39984 -0.33948,0.30016 -0.274412,0.931413 -0.639741,1.199517 -0.699664,0.51346 -1.764578,0.13036 -2.558965,0.47981 -0.731983,0.322 -1.143283,1.24603 -1.919224,1.43942 -0.837714,0.20878 -1.705889,-0.53255 -2.558968,-0.39984 -0.883441,0.13743 -1.999192,0.959614 -2.39903,1.199524 -0.399839,0.2399 -1.558419,1.13343 -2.39903,1.59934 -0.793032,0.43954 -1.596617,0.911 -2.478998,1.11955 -0.649049,0.15341 -1.332711,0.0555 -1.999194,0.08 -0.799583,0.0293 -1.605389,0.18163 -2.39903,0.08 -0.744557,-0.0953 -1.437744,-0.43223 -2.159127,-0.63974 -1.143623,-0.32898 -2.280238,-0.68708 -3.438611,-0.95961 -0.686995,-0.16163 -1.42976,-0.1235 -2.07916,-0.39984 -0.510384,-0.21719 -0.886454,-0.66988 -1.359451,-0.9596 -0.488051,-0.29894 -0.971301,-0.634874 -1.519386,-0.799684 -0.256543,-0.0771 -0.536638,-0.13075 -0.799677,-0.08 -0.678993,0.131 -1.473428,0.3728 -1.839256,0.959624 -0.56424,0.90509 -0.09373,2.13221 -0.07997,3.19869 0.02032,1.5746 0.215441,3.14356 0.239903,4.7181 0.125903,8.10399 -6.964057,30.61859 1.13954,30.76756 72.625837,1.33515 147.355697,0.16379 191.682557,0.79968 6.29857,0.0904 4.09671,-14.42198 3.03877,-20.63173 z"
       id="path1"
       sodipodi:nodetypes="sssssssssssssssssssssssssssssssssssssssssssssssssssssssssssssazssssssssssssssssssssssssssssssssssssssssssssssssssssssssssssssssssssssssssssssssssssssssssssss" /></g></svg>
