<?xml version="1.0" encoding="UTF-8" standalone="no"?>
<!-- Created with Inkscape (http://www.inkscape.org/) -->

<svg
   width="194.31778mm"
   height="84.189644mm"
   viewBox="0 0 194.31777 84.189644"
   version="1.1"
   id="svg1"
   xml:space="preserve"
   xmlns:inkscape="http://www.inkscape.org/namespaces/inkscape"
   xmlns:sodipodi="http://sodipodi.sourceforge.net/DTD/sodipodi-0.dtd"
   xmlns="http://www.w3.org/2000/svg"
   xmlns:svg="http://www.w3.org/2000/svg"><sodipodi:namedview
     id="namedview1"
     pagecolor="#ffffff"
     bordercolor="#000000"
     borderopacity="0.25"
     inkscape:showpageshadow="2"
     inkscape:pageopacity="0.0"
     inkscape:pagecheckerboard="0"
     inkscape:deskcolor="#d1d1d1"
     inkscape:document-units="mm"
     inkscape:zoom="1.654314"
     inkscape:cx="271.71384"
     inkscape:cy="474.2147"
     inkscape:window-width="3840"
     inkscape:window-height="2071"
     inkscape:window-x="-9"
     inkscape:window-y="-9"
     inkscape:window-maximized="1"
     inkscape:current-layer="layer1" /><defs
     id="defs1" /><g
     inkscape:label="Layer 1"
     inkscape:groupmode="layer"
     id="layer1"
     transform="translate(-20.292447,-49.395662)"><path
       style="display:inline;fill:#0a0a0a;fill-opacity:1;stroke-width:1.8;paint-order:markers stroke fill"
       d="m 212.57214,112.63032 c -1.37574,-4.93887 0.35459,-3.03327 -1.57898,-4.9239 -1.93357,-1.89064 -4.20997,-2.29658 -5.51777,-3.27868 -1.3078,-0.9821 -1.96234,-1.64167 -2.479,-2.31905 -0.51666,-0.67739 -0.2375,-1.26788 -0.79968,-1.51939 -0.56218,-0.25151 -0.43479,1.02114 -1.91922,0.47981 -1.48443,-0.54134 -2.91563,-5.697424 -4.39822,-6.077553 -1.48259,-0.380129 -0.46717,0.836816 -1.51939,0.719712 -1.05222,-0.117104 -2.92122,-2.430572 -3.67851,-2.878839 -0.75729,-0.448267 1.19396,-0.689695 -0.55978,-0.239903 -1.75374,0.449792 -4.05521,7.411163 -6.31744,8.076743 -2.26223,0.66558 -2.62404,-1.316493 -3.67852,-1.279483 -1.05448,0.037 -0.0993,0.834173 -2.23909,0.959613 -2.13978,0.12544 -7.93395,-2.405151 -9.99597,-2.95881 -2.06202,-0.553659 -1.28609,-0.458632 -2.31906,-0.559774 -1.03297,-0.101142 -2.47899,0.77882 -3.83845,0.159935 -1.35946,-0.618885 -2.09748,-3.223496 -3.19871,-3.998386 -1.10123,-0.77489 -1.70599,-0.351152 -2.79886,-0.959612 -1.09287,-0.60846 -2.46031,-2.438368 -3.51858,-2.878835 -1.05827,-0.440467 -1.41808,-0.264019 -2.31907,-0.239903 -0.90099,0.02412 -2.20915,3.91e-4 -3.03877,0.479806 -0.82962,0.479415 -0.98915,1.493738 -1.67932,2.079159 -0.69017,0.585421 -1.67959,1.067612 -2.39903,1.35945 -0.71944,0.291838 -0.78839,0.490643 -1.83926,0.479806 -1.05087,-0.01084 -2.97331,-1.318672 -4.23828,-1.199515 -1.26497,0.119157 -2.10582,1.052908 -2.87884,1.439418 -0.77302,0.38651 -0.93222,0.740727 -1.75929,0.879644 -0.82707,0.138917 -1.93289,-0.490035 -3.03877,-0.399838 -1.10588,0.0902 -2.57776,0.611797 -3.43861,1.039582 -0.86085,0.427785 -1.43942,1.199514 -1.75929,1.279483 -0.31987,0.07997 -5.9465,-2.505673 -7.69727,-2.353162 -1.75077,0.152511 -5.91761,-0.159935 -6.31745,-0.479806 -0.39984,-0.319871 -4.6407,-2.086804 -5.83764,-2.638936 -1.19693,-0.552132 -0.78577,-0.688878 -1.35945,-0.639741 -0.57369,0.04914 -1.08282,0.859603 -1.59935,1.119547 -0.51654,0.259944 -0.66357,0.353905 -1.439424,0.479809 -0.775848,0.125904 -2.373522,-0.289459 -3.198706,0 -0.825184,0.289459 -1.065572,1.041145 -1.599354,1.279482 -0.533782,0.238337 -1.119549,0.07997 -1.43942,0.239903 -0.319871,0.159935 -1.351417,1.752329 -2.239095,1.679319 -0.887678,-0.073 -0.954413,-1.453863 -1.759289,-1.839254 -0.804876,-0.385391 -2.020267,-0.273671 -2.798868,-0.239903 -0.778601,0.03377 -1.088734,0.394092 -1.839259,0.319871 -0.750525,-0.07422 -1.673943,-0.545933 -2.478997,-0.959612 -0.805054,-0.413679 -1.999192,-1.279486 -2.319063,-1.519389 -0.319871,-0.239903 -2.331974,-0.07252 -3.75848,0.159936 -1.426506,0.232452 -4.398224,1.279484 -4.718095,1.359453 -0.319871,0.07997 -2.057855,-0.451394 -2.718901,-0.719712 -0.661046,-0.268318 -0.759705,-0.662056 -1.279482,-0.719709 -0.519777,-0.05765 -0.879647,-0.07997 -1.599356,0.479806 -0.719709,0.559776 -2.949746,1.435627 -3.918416,1.519388 -0.96867,0.08376 -0.973913,-0.466475 -1.599353,-0.31987 -0.62544,0.146605 -1.182946,0.974793 -1.759289,1.35945 -0.576343,0.384657 -1.199517,0.639741 -1.679323,0.959615 -0.479806,0.31987 -1.905294,1.15013 -2.718901,1.35945 -0.813607,0.20932 -1.173656,-0.071 -1.999192,0.08 -0.825536,0.15096 -2.39903,0.55977 -2.878836,0.95961 -0.479806,0.39984 -2.925094,1.60711 -3.998386,1.99919 -1.073292,0.39209 -1.594978,0.45891 -2.319062,0.55978 -0.724084,0.10086 -0.879644,-0.15994 -1.999192,0.08 -1.119548,0.239895 -1.933315,0.811145 -2.638935,1.119545 -0.70562,0.30839 -0.722882,0.90879 -1.599353,0.7197 -0.876471,-0.18908 -1.727095,-2.318575 -2.39903,-2.718895 -0.671935,-0.40032 -0.629002,-0.24078 -1.039581,-0.2399 -0.410579,8.8e-4 -1.053678,0.48315 -1.35945,0.31987 -0.305772,-0.16328 0.06283,-0.45385 -0.239903,-0.63974 -0.302735,-0.1859 -0.719709,-0.63974 -1.439419,0.15993 -0.71971,0.79968 -1.172427,1.698395 -1.839257,2.239095 -0.66683,0.5407 -1.679321,0.63974 -1.999192,1.03958 -0.319871,0.39984 -0.414281,0.59644 -0.959612,0.47981 -0.545331,-0.11664 -1.027335,-1.5269 -1.439418,-1.7593 -0.412083,-0.23239 -0.0136,-0.10618 -0.559774,-0.08 -0.546176,0.0262 -1.218782,-1.298695 -2.638934,0.63975 -1.420152,1.93845 0.502891,6.39797 0.799677,11.67528 0.296786,5.27731 -1.70347,20.16135 0.879644,19.99192 2.583114,-0.16943 185.485976,0.44542 189.763326,0.71971 4.27735,0.27429 1.69561,-16.01267 0.31987,-20.95153 z"
       id="path2"
       sodipodi:nodetypes="zzzzzzzzzzzzzzzzzzzzzzzzzzzzzzzzzzzzzzzzzzzzzzzzzzzzzzzzzzzzzzzzzzzzzzzzzzzzzz" /><path
       d="m 175.07238,49.477401 c -0.0957,0.06625 -0.1325,0.228183 -0.14722,0.57414 l -0.0221,0.478449 -0.39748,-0.02209 -0.39011,-0.02209 0.0442,0.228183 c 0.0221,0.117773 0.0662,0.316508 0.0883,0.426923 0.0442,0.198742 0.0294,0.21346 -0.18402,0.176659 -0.46372,-0.06625 -0.81704,0.390117 -0.81704,1.052583 0,0.390123 0.11777,0.647747 0.43428,0.949538 0.28707,0.272343 0.28707,0.345952 0,0.507891 -0.20609,0.117768 -0.22082,0.154575 -0.19873,0.471085 0.022,0.316514 0.007,0.345956 -0.16194,0.397482 -0.27235,0.0736 -1.12619,0.0736 -1.24396,0 -0.081,-0.05151 -0.0884,-0.09569 -0.0221,-0.169299 0.11777,-0.147211 0.12514,-0.47845 0.0221,-0.905368 -0.0442,-0.206105 -0.11042,-0.500532 -0.13987,-0.662471 -0.0368,-0.161934 -0.0883,-0.294427 -0.12513,-0.287067 -0.0442,0 -0.13984,0.139856 -0.22082,0.30915 -0.10305,0.213465 -0.18402,0.294432 -0.26498,0.264989 -0.0957,-0.02942 -0.1325,0.03682 -0.17666,0.30915 l -0.0515,0.338593 -0.18402,-0.169294 -0.19138,-0.176658 0.0515,0.426924 c 0.0442,0.404841 0.0368,0.426919 -0.10305,0.382758 -0.18402,-0.05889 -0.19138,0.05151 -0.007,0.21346 0.14722,0.132491 0.34596,0.537333 0.29443,0.596222 -0.0221,0.01474 -0.29443,0.08097 -0.61831,0.147211 -0.55941,0.117773 -0.58885,0.117773 -0.68454,-0.01474 -0.0662,-0.08833 -0.0883,-0.235548 -0.0589,-0.449007 0.0294,-0.220824 0.007,-0.36804 -0.0662,-0.485808 -0.0662,-0.09569 -0.13249,-0.397482 -0.16193,-0.677189 -0.0368,-0.412201 -0.0589,-0.47109 -0.11778,-0.338593 -0.0883,0.191377 -0.18402,0.2061 -0.2429,0.05151 -0.0662,-0.161939 -0.19138,-0.05151 -0.13985,0.117768 0.0294,0.0736 0.0148,0.198742 -0.0294,0.264991 -0.0662,0.125133 -0.0736,0.125133 -0.11777,0 -0.0294,-0.06625 -0.0957,-0.125133 -0.15457,-0.125133 -0.0736,0 -0.10305,0.10305 -0.10305,0.375399 0,0.338592 -0.0148,0.368034 -0.14722,0.323873 -0.1104,-0.03682 -0.14722,-0.01474 -0.14722,0.10305 0,0.235542 -0.081,0.368035 -0.19137,0.323869 -0.13985,-0.05151 -0.13249,0 0.0736,0.40484 0.33123,0.662473 0.3386,0.655108 -0.20609,0.898014 -0.56678,0.257626 -0.58887,0.257626 -0.78024,0.09569 -0.10306,-0.08833 -0.14722,-0.220824 -0.14722,-0.419564 0,-0.161934 -0.0515,-0.478449 -0.11041,-0.699267 -0.0589,-0.228183 -0.12513,-0.566781 -0.14722,-0.765522 -0.0515,-0.375394 -0.13986,-0.449001 -0.21346,-0.161934 -0.0221,0.09569 -0.11041,0.213459 -0.19137,0.257625 -0.11042,0.05888 -0.14722,0.154575 -0.14722,0.382758 v 0.301791 l -0.15458,-0.139851 -0.15458,-0.139858 0.0221,0.345958 c 0.0294,0.368034 0.007,0.4122 -0.13986,0.264984 -0.15457,-0.154576 -0.18402,0 -0.0589,0.353316 0.13249,0.390122 0.1104,0.471089 -0.10305,0.419564 -0.21347,-0.05889 -0.18402,0.05151 0.12513,0.360675 l 0.27234,0.279708 -0.16929,0.176658 c -0.17666,0.191382 -0.72135,0.412201 -1.00842,0.412201 -0.12513,0 -0.2061,-0.08833 -0.34596,-0.390118 -0.10305,-0.2061 -0.2061,-0.463725 -0.23554,-0.566781 -0.0294,-0.10305 -0.12514,-0.316508 -0.20611,-0.478443 l -0.14721,-0.294431 -0.0662,0.242906 c -0.0589,0.220818 -0.0883,0.242901 -0.25027,0.2061 -0.15457,-0.04416 -0.18402,-0.02942 -0.14721,0.08097 0.1104,0.390118 0.12513,0.537334 0.0515,0.537334 -0.0442,0 -0.081,-0.03682 -0.081,-0.0736 0,-0.04416 -0.0442,-0.0736 -0.0957,-0.0736 -0.0662,0 -0.081,0.08833 -0.0662,0.294432 0.022,0.235541 0.007,0.294432 -0.0883,0.294432 -0.0662,0 -0.11777,0.05151 -0.11777,0.110408 0,0.161934 0.21346,0.559416 0.3754,0.72135 0.25027,0.242908 0.17666,0.397482 -0.31652,0.647748 -0.55941,0.279708 -0.74342,0.228183 -0.86856,-0.235542 -0.11777,-0.426924 -0.63303,-0.964257 -0.94218,-0.98634 l -0.23554,-0.01474 0.0515,0.397482 c 0.0368,0.360675 0.0294,0.40484 -0.10304,0.434283 -0.14722,0.03682 -0.14722,0.04416 -0.0147,0.30915 0.1472,0.287067 0.17665,0.456366 0.081,0.456366 -0.0368,0 -0.12513,0.04416 -0.2061,0.10305 -0.1325,0.10305 -0.12514,0.125133 0.22819,0.478449 0.21345,0.220824 0.3165,0.375399 0.25026,0.375399 -0.0589,0 -0.22819,0.117768 -0.36804,0.264984 -0.13249,0.147216 -0.34596,0.30915 -0.46373,0.375398 -0.26498,0.139858 -0.27235,0.125133 -0.88328,-0.794957 -0.39013,-0.588864 -0.66247,-0.890649 -0.62567,-0.67719 0.007,0.02942 0.007,0.125133 0,0.2061 -0.007,0.110409 -0.0294,0.117774 -0.0957,0.05151 -0.16194,-0.161934 -0.2061,-0.09569 -0.2061,0.287068 0,0.279707 -0.0368,0.40484 -0.12514,0.478449 -0.12513,0.08833 -0.11777,0.110414 0.0368,0.434283 l 0.1693,0.345956 -0.18402,-0.04416 c -0.36068,-0.08833 -0.25027,0.08833 0.28707,0.478449 0.30179,0.213465 0.55205,0.434283 0.55205,0.485808 0,0.117774 -0.5815,0.831765 -0.76552,0.934815 -0.10304,0.06625 -0.14721,0.05889 -0.17666,-0.02942 -0.0515,-0.147216 -1.17035,-1.29549 -1.21451,-1.251324 -0.0221,0.02209 -0.0589,0.154575 -0.081,0.294426 -0.0221,0.139857 -0.0736,0.26499 -0.11041,0.279709 -0.11042,0.03682 -0.0957,0.309155 0.0294,0.529973 0.13985,0.242907 0.13985,0.36804 0,0.36804 -0.27971,0 0.0589,0.566775 0.47844,0.802323 0.16194,0.08833 0.29444,0.198741 0.29444,0.242901 0,0.132492 -0.44901,0.787599 -0.64775,0.942179 -0.0957,0.08097 -0.25027,0.147211 -0.3386,0.147211 -0.21346,0 -0.75079,-0.353316 -1.11146,-0.728715 -0.15458,-0.161934 -0.31652,-0.301791 -0.35332,-0.301791 -0.0368,0 -0.0515,0.132497 -0.0294,0.301791 0.0368,0.287072 0.0294,0.301791 -0.13984,0.257631 -0.265,-0.06625 -0.22083,0.09569 0.11776,0.471084 0.33124,0.36804 0.36068,0.441648 0.13986,0.441648 -0.11778,0 -0.13986,0.02942 -0.0957,0.161934 0.0662,0.235542 0.23554,0.412206 0.58886,0.6183 0.41956,0.250266 0.46372,0.456372 0.19874,0.971622 -0.29443,0.581499 -0.4122,0.625664 -0.70664,0.30915 -0.39747,-0.441643 -1.52367,-0.993699 -1.52367,-0.758158 0,0.04417 0.081,0.198742 0.18402,0.345958 0.19874,0.294425 0.18402,0.4122 -0.0368,0.4122 -0.25763,0 -0.22818,0.139856 0.0736,0.331233 0.33858,0.213459 0.38276,0.4122 0.1104,0.537338 -0.16193,0.0736 -0.17666,0.110409 -0.1104,0.235542 0.0957,0.176659 0.22082,0.235543 0.81704,0.397477 0.22818,0.06625 0.44165,0.169299 0.46373,0.235548 0.0515,0.132491 -0.0515,0.625658 -0.25764,1.258683 -0.13984,0.434282 -0.16929,0.46373 -0.36803,0.46373 -0.25026,0 -0.46372,-0.103055 -1.11147,-0.515256 -0.55206,-0.360674 -0.67719,-0.375399 -0.61095,-0.08097 0.0368,0.184017 0.0148,0.242907 -0.13985,0.338593 -0.10304,0.0736 -0.19137,0.154574 -0.19137,0.184022 0,0.03682 0.14721,0.117768 0.33122,0.191376 0.18402,0.06625 0.35333,0.154575 0.3754,0.184017 0.0148,0.03682 -0.10304,0.132498 -0.26498,0.213465 -0.36804,0.184017 -0.32387,0.294432 0.11777,0.294432 0.39012,0 0.50054,0.154575 0.25027,0.353311 -0.25763,0.206105 -0.0515,0.30179 0.70663,0.323873 l 0.6551,0.02209 0.0221,0.257624 c 0.0368,0.338598 -0.0515,1.266049 -0.12513,1.391182 -0.0515,0.0736 -0.10305,0.0736 -0.27234,-0.01474 -0.11778,-0.05889 -0.36804,-0.132491 -0.55942,-0.161934 -0.28707,-0.04416 -0.38276,-0.02942 -0.5447,0.10305 -0.1104,0.08833 -0.25762,0.154576 -0.32387,0.154576 -0.14721,0 -0.33124,0.191381 -0.2429,0.242906 0.0294,0.01474 0.19137,0.05889 0.35331,0.08833 0.25763,0.04416 0.27971,0.05889 0.16194,0.147216 -0.21346,0.154575 -0.14722,0.257625 0.19138,0.257625 0.16929,0 0.36067,0.02942 0.41956,0.0736 0.0883,0.05151 0.0883,0.08833 -0.0368,0.213465 -0.0736,0.08833 -0.11041,0.176652 -0.0883,0.198735 0.0221,0.02942 0.34596,0.04416 0.70663,0.03682 0.7876,-0.0074 0.81704,0.02209 0.81704,0.765516 0,0.456366 -0.007,0.485809 -0.19874,0.559416 -0.11777,0.04417 -0.35331,0.05889 -0.52997,0.03682 -0.17665,-0.02209 -0.36068,-0.01469 -0.40484,0.02209 -0.0442,0.03682 -0.21347,0.08097 -0.3754,0.09569 -0.25762,0.02209 -0.29443,0.04416 -0.29443,0.206101 0,0.125133 0.0515,0.191381 0.18403,0.220824 0.15457,0.03682 0.18401,0.08833 0.16193,0.279708 l -0.0148,0.235542 0.30915,-0.04416 c 0.30915,-0.05151 0.31651,-0.05151 0.18402,0.09569 -0.19138,0.220824 -0.15458,0.26499 0.18402,0.213465 0.25762,-0.04416 0.30178,-0.03682 0.22818,0.03682 -0.13249,0.132492 -0.11777,0.287073 0.0221,0.287073 0.0589,0 0.26499,-0.08833 0.44165,-0.191382 0.19137,-0.110409 0.36068,-0.169299 0.39012,-0.132492 0.0368,0.03682 0.11777,0.279708 0.17665,0.544692 0.11778,0.47109 0.11778,0.47845 -0.0294,0.603583 -0.0957,0.08097 -0.27971,0.132491 -0.449,0.132491 -0.16194,0 -0.38276,0.05151 -0.48582,0.10305 -0.1104,0.05889 -0.36067,0.176659 -0.55205,0.257631 -0.38276,0.161934 -0.40484,0.301791 -0.0442,0.301791 0.24291,0 0.265,0.04416 0.0883,0.235542 -0.13986,0.154575 -0.0515,0.176658 0.33859,0.05888 0.24291,-0.06624 0.24291,-0.06624 0.11777,0.0736 -0.18401,0.198741 -0.0957,0.257625 0.17667,0.117774 0.32387,-0.169299 0.37539,-0.147216 0.37539,0.176658 0,0.368034 0.12514,0.382758 0.61831,0.06624 0.41219,-0.257625 0.45636,-0.235542 0.66246,0.287073 0.13249,0.353311 0.15458,0.647743 0.0442,0.713991 -0.0368,0.02209 -0.23554,0.06625 -0.44164,0.08833 -0.29443,0.03682 -0.47844,0.117773 -0.8244,0.382758 -0.52262,0.390123 -0.63303,0.566781 -0.30915,0.500532 0.11776,-0.02942 0.29442,-0.0736 0.39747,-0.10305 0.17666,-0.04417 0.17666,-0.04417 -0.0368,0.139857 -0.27971,0.242901 -0.19138,0.345951 0.15458,0.176658 0.27971,-0.125133 0.4122,-0.103056 0.26499,0.04416 -0.19874,0.19874 -0.10305,0.30179 0.23554,0.250266 0.32388,-0.05151 0.33124,-0.05151 0.31651,0.154574 -0.0221,0.360676 0.24291,0.30915 0.67719,-0.139851 0.36068,-0.375399 0.38276,-0.382757 0.48581,-0.250266 0.0589,0.08097 0.11041,0.191377 0.11041,0.250266 0,0.05888 0.11777,0.323875 0.26499,0.581499 0.27234,0.493167 0.28707,0.684549 0.0294,0.684549 -0.1693,0 -0.96426,0.264985 -1.28077,0.426919 -0.21347,0.103055 -0.21347,0.110415 -0.0662,0.191382 0.081,0.04416 0.13249,0.125133 0.11041,0.184017 -0.0294,0.08098 0.0148,0.09569 0.20611,0.05151 0.24289,-0.04416 0.24289,-0.04416 0.1104,0.10305 -0.13249,0.147216 -0.12513,0.147216 0.0662,0.147216 0.11041,0 0.26499,-0.03682 0.35331,-0.08097 0.19139,-0.10305 0.22819,-0.05151 0.12514,0.184017 -0.11777,0.25763 -0.0515,0.301791 0.22082,0.161939 0.29443,-0.154574 0.30179,-0.154574 0.25027,0.139852 -0.0589,0.368039 0.11777,0.338592 0.58149,-0.08833 l 0.36804,-0.353316 0.22082,0.257625 c 0.11778,0.139856 0.30179,0.397482 0.39748,0.566775 0.17667,0.294431 0.17667,0.316514 0.0662,0.529974 -0.13249,0.264989 -0.25763,0.338598 -0.69191,0.404841 -0.44164,0.06625 -0.76552,0.242907 -0.71399,0.390123 0.0294,0.06624 0.007,0.161934 -0.0368,0.213459 -0.0736,0.08833 0.007,0.10305 0.449,0.10305 0.52997,0 0.53735,0 0.41221,0.139856 -0.2429,0.264984 -0.022,0.353316 0.42692,0.184017 0.0957,-0.03682 0.11042,-0.0074 0.0736,0.184017 -0.0368,0.169299 -0.022,0.228183 0.0515,0.228183 0.18401,-0.0074 0.75815,-0.30179 0.96425,-0.493167 0.17667,-0.169298 0.21347,-0.176657 0.32388,-0.08833 0.19874,0.161939 0.83913,0.949538 0.83913,1.030505 0,0.04417 -0.15458,0.139857 -0.34596,0.220824 -0.90537,0.375399 -1.13356,0.51525 -1.11147,0.684549 0.0148,0.09569 0.10304,0.184017 0.25026,0.228183 0.19138,0.05889 0.21346,0.09569 0.14722,0.198741 -0.12513,0.2061 0,0.235542 0.2429,0.05889 0.2429,-0.169299 0.2797,-0.154574 0.13986,0.0736 -0.13986,0.213459 -0.007,0.264984 0.19873,0.0736 0.21346,-0.19874 0.30916,-0.161939 0.18402,0.08097 -0.081,0.139858 -0.0736,0.154576 0.0442,0.125133 0.081,-0.02209 0.19139,-0.06625 0.25764,-0.09569 0.0957,-0.03682 0.14721,0.0074 0.19874,0.161934 l 0.0736,0.206105 0.40484,-0.419565 c 0.22082,-0.235541 0.43429,-0.426923 0.47109,-0.426923 0.0368,0 0.34596,0.250266 0.68455,0.559416 0.90537,0.802322 1.60464,1.317573 2.90014,2.127255 0.63302,0.390122 1.14827,0.728715 1.14827,0.750798 0,0.02209 -0.21346,0.478448 -0.47109,1.008422 -0.25763,0.529974 -0.49317,1.059942 -0.51525,1.177717 -0.0294,0.117773 -0.1693,0.345956 -0.30915,0.50789 -0.13985,0.169299 -0.25027,0.353316 -0.25027,0.426924 0,0.169299 0.44901,0.529974 0.98635,0.802323 0.40484,0.2061 0.49316,0.220824 1.26604,0.220824 0.77288,0 0.83912,0.0074 0.94217,0.161934 0.0662,0.09569 0.11778,0.31651 0.11778,0.51525 0,0.264997 0.0736,0.478447 0.29443,0.905377 0.30915,0.581488 0.36067,0.824398 0.19874,0.890638 -0.0515,0.0148 -0.30915,-0.0148 -0.57414,-0.081 -0.25763,-0.0589 -0.65511,-0.11041 -0.88329,-0.11041 -0.4858,0 -0.54469,0.0736 -0.42692,0.53734 0.0368,0.16928 0.0662,0.55941 0.0515,0.8612 l -0.022,0.55206 h -0.52998 c -0.44901,0 -0.55206,0.0221 -0.71399,0.17665 -0.21347,0.19874 -0.3754,0.64039 -0.47845,1.31022 -0.0589,0.36803 -0.14722,0.55941 -0.41956,0.94953 -0.56678,0.79495 -0.66983,1.31757 -0.39012,1.94324 0.72136,1.59727 4.04104,2.57626 9.74563,2.87069 4.6667,0.2429 8.1925,-0.17667 10.89389,-1.28813 1.11883,-0.46373 2.1567,-1.19981 2.4364,-1.7445 0.14722,-0.28707 0.12514,-0.69927 -0.0515,-1.06731 -0.16193,-0.33859 -0.77287,-0.93481 -1.14091,-1.11147 -0.21346,-0.0957 -0.23554,-0.13986 -0.2797,-0.59623 -0.0221,-0.26498 -0.0957,-0.66246 -0.15458,-0.87592 -0.12513,-0.40484 -0.12513,-0.40484 -0.72872,-0.4858 -0.16193,-0.0221 -0.33859,-0.081 -0.39011,-0.13251 -0.0515,-0.0589 -0.14722,-0.44899 -0.20611,-0.86856 -0.0662,-0.42692 -0.14721,-0.80231 -0.19138,-0.84649 -0.0368,-0.0368 -0.35331,-0.0883 -0.71399,-0.11041 -0.35331,-0.022 -0.68455,-0.0662 -0.72871,-0.0957 -0.18402,-0.11778 -0.10305,-0.471088 0.18402,-0.839128 0.37539,-0.47108 0.40484,-0.56677 0.26498,-0.890643 -0.20609,-0.493173 -0.449,-0.669831 -1.49423,-1.089396 -0.1693,-0.0736 -0.16194,-0.08097 0.15457,-0.250266 0.32388,-0.169293 0.36068,-0.169293 1.00843,-0.08833 0.74344,0.08833 0.86121,0.07361 0.92745,-0.139851 0.0662,-0.191382 -0.0662,-0.331238 -0.49316,-0.552057 -0.19139,-0.09569 -0.35333,-0.191382 -0.35333,-0.2061 0,-0.02209 0.20611,-0.228183 0.44902,-0.463731 0.25026,-0.235541 0.66246,-0.699267 0.92008,-1.02314 0.25763,-0.331233 1.00842,-1.126192 1.66353,-1.766581 0.66248,-0.647741 1.42063,-1.413263 1.68561,-1.715054 0.5447,-0.603576 0.57415,-0.603576 1.07467,-0.139851 0.14721,0.139851 0.26499,0.198741 0.32387,0.161934 0.0515,-0.02942 0.265,-0.04417 0.47845,-0.03682 0.33123,0.01474 0.38276,0 0.41957,-0.139857 0.0294,-0.125133 0.0736,-0.14721 0.22818,-0.10305 0.22082,0.05151 0.44164,-0.08833 0.38275,-0.242901 -0.0221,-0.05889 0.0368,-0.132498 0.13986,-0.184022 0.22818,-0.103051 0.23554,-0.206101 0.022,-0.206101 -0.27971,0 -0.50054,-0.08833 -0.50054,-0.191376 0,-0.117774 -0.22818,-0.250266 -0.41955,-0.250266 -0.28708,0 -0.68455,-0.154575 -0.68455,-0.272349 0,-0.184017 1.00106,-1.126191 1.19244,-1.126191 0.10304,0 0.25026,0.10305 0.3754,0.257626 0.22081,0.272342 0.35331,0.316508 0.4858,0.154574 0.0442,-0.05151 0.1693,-0.09569 0.27235,-0.09569 0.0957,-0.0074 0.2429,-0.05888 0.31651,-0.125133 0.0662,-0.06625 0.22819,-0.117768 0.34595,-0.117768 0.32388,0 0.43429,-0.09569 0.33124,-0.287074 -0.081,-0.139851 -0.0662,-0.154574 0.13249,-0.154574 0.11778,0 0.24291,-0.03682 0.265,-0.0736 0.022,-0.04417 -0.0148,-0.0736 -0.0957,-0.0736 -0.2429,0 -0.60358,-0.154576 -0.60358,-0.264984 0,-0.139857 -0.30179,-0.250266 -0.65511,-0.250266 -0.1693,0 -0.32387,-0.04417 -0.38276,-0.117774 -0.081,-0.10305 -0.0736,-0.161934 0.081,-0.426919 0.32387,-0.56678 0.73607,-1.074672 0.87593,-1.074672 0.0736,0 0.36068,0.169299 0.64038,0.368034 0.27971,0.206107 0.53733,0.360681 0.5815,0.345958 0.0368,-0.01474 0.0736,-0.11041 0.0736,-0.2061 0,-0.154576 0.0294,-0.176659 0.22082,-0.154576 0.49316,0.05888 0.51524,0.05151 0.51524,-0.09569 0,-0.117768 0.0589,-0.154576 0.31652,-0.169294 0.34595,-0.02942 0.38276,-0.08833 0.14722,-0.25763 -0.13249,-0.09569 -0.14722,-0.132492 -0.0736,-0.184018 0.0736,-0.05151 0,-0.09569 -0.24291,-0.154574 -0.25026,-0.06624 -0.33123,-0.117774 -0.31651,-0.21346 0.0221,-0.103055 -0.0515,-0.125133 -0.41956,-0.147215 -0.35331,-0.01474 -0.46372,-0.05151 -0.56678,-0.184023 -0.19137,-0.242901 -0.16193,-0.368034 0.2061,-0.817041 0.36805,-0.463726 0.3754,-0.463726 0.9201,-0.03682 0.33123,0.264984 0.48581,0.264984 0.59621,0.02942 0.0662,-0.139857 0.13987,-0.184023 0.32388,-0.184023 0.13986,0 0.25027,-0.04416 0.27971,-0.110409 0.0221,-0.05889 0.12513,-0.110409 0.22818,-0.110409 0.11042,0 0.26499,-0.03682 0.34596,-0.08097 0.15457,-0.08097 0.15457,-0.08833 0.0147,-0.191382 -0.13249,-0.09569 -0.13249,-0.10305 0.0294,-0.139851 0.22082,-0.05889 0.13249,-0.176658 -0.1325,-0.176658 -0.22818,0 -0.36068,-0.110415 -0.2061,-0.169299 0.0515,-0.01474 -0.0294,-0.05889 -0.19138,-0.08833 -0.18401,-0.03682 -0.29442,-0.10305 -0.31651,-0.191382 -0.0442,-0.161939 -0.16193,-0.176658 -0.41955,-0.05889 -0.21347,0.10305 -0.41221,-0.0074 -0.41221,-0.220825 0,-0.176657 0.66247,-1.111472 0.7876,-1.111472 0.0662,0 0.22818,0.10305 0.36803,0.228183 0.31652,0.272349 0.64775,0.279708 0.64039,0.0074 0,-0.139851 0.0368,-0.161934 0.25763,-0.169293 0.25026,0 0.66246,-0.125133 0.47108,-0.132498 -0.21346,-0.01469 -0.0736,-0.154575 0.14722,-0.154575 0.29443,0 0.3754,-0.05889 0.26499,-0.198735 -0.0662,-0.0736 -0.0515,-0.09569 0.0736,-0.09569 0.081,0 0.15458,-0.03682 0.15458,-0.0736 0,-0.04416 -0.11042,-0.0736 -0.23555,-0.0736 -0.2429,-0.0074 -0.2429,-0.0074 -0.0662,-0.10305 0.16929,-0.09569 0.16193,-0.10305 -0.17666,-0.147216 -0.47845,-0.0736 -0.55205,-0.110409 -0.50053,-0.242906 0.0368,-0.09569 0.007,-0.11041 -0.1693,-0.06624 -0.57414,0.132492 -0.73608,0.132492 -0.83177,0.01474 -0.0883,-0.10305 -0.0736,-0.184017 0.0589,-0.544698 0.19875,-0.51525 0.49317,-0.971616 0.62566,-0.971616 0.0589,0 0.24291,0.06625 0.41957,0.147216 0.36804,0.161934 0.50789,0.184017 0.50789,0.06625 0,-0.169299 0.51526,-0.566781 0.7876,-0.618306 0.15457,-0.02209 0.33124,-0.0736 0.39012,-0.117773 0.0957,-0.05889 0.0883,-0.08833 -0.0294,-0.176653 -0.14722,-0.110414 -0.14722,-0.110414 0,-0.220824 0.13249,-0.09569 0.11777,-0.10305 -0.14722,-0.110409 -0.22818,0 -0.26499,-0.02209 -0.19874,-0.103056 0.0662,-0.08097 0.0294,-0.110408 -0.2061,-0.147216 -0.16194,-0.02209 -0.32387,-0.10305 -0.36804,-0.169293 -0.0662,-0.125133 -0.0883,-0.117774 -0.29443,0.03682 -0.27971,0.206101 -0.30915,0.206101 -0.52262,-0.02209 -0.20609,-0.220819 -0.17665,-0.566776 0.10306,-1.177716 l 0.19138,-0.419565 0.47109,0.05151 c 0.43429,0.05151 0.47845,0.03682 0.51525,-0.09569 0.0294,-0.08097 0.0957,-0.169299 0.15457,-0.191381 0.0589,-0.02209 0.11042,-0.08833 0.11042,-0.147216 0,-0.06624 0.11776,-0.147216 0.29442,-0.191377 0.3018,-0.08097 0.41957,-0.184023 0.29444,-0.257631 -0.12514,-0.0736 -0.081,-0.235542 0.11776,-0.471084 l 0.19138,-0.228183 h -0.22818 c -0.17666,0 -0.22818,-0.02942 -0.22818,-0.147215 0,-0.139852 0,-0.139852 -0.30915,0 -0.36804,0.169298 -0.65511,0.19874 -0.51526,0.05889 0.0515,-0.05151 0.0883,-0.117769 0.0883,-0.14721 0,-0.125133 -0.13985,-0.05151 -0.37539,0.19874 -0.24291,0.242901 -0.25764,0.250261 -0.41221,0.125133 -0.13985,-0.103055 -0.17665,-0.220823 -0.21345,-0.691913 -0.0662,-0.750798 -0.0148,-0.817041 0.56677,-0.750798 0.42692,0.05151 0.52261,0 0.34595,-0.176652 -0.081,-0.08097 0.0294,-0.147216 0.55206,-0.331233 0.13985,-0.05151 0.16194,-0.16194 0.0515,-0.235548 -0.0442,-0.02209 0.10305,-0.21346 0.30915,-0.4122 l 0.39012,-0.360675 -0.27971,0.04416 c -0.24291,0.04417 -0.28706,0.02942 -0.32387,-0.110414 -0.0442,-0.184017 -0.0294,-0.184017 -0.36803,-0.04416 -0.3386,0.147216 -0.39013,0.139857 -0.39013,-0.03682 0,-0.242906 -0.19138,-0.169299 -0.48581,0.184017 -0.14721,0.184017 -0.30915,0.331233 -0.35331,0.331233 -0.1693,0 -0.33859,-0.434283 -0.39012,-0.986339 l -0.0442,-0.559416 h 0.52997 c 0.52998,0 0.64038,-0.0736 0.43429,-0.279709 -0.0662,-0.06624 -0.0589,-0.110409 0.0515,-0.184017 0.0736,-0.05889 0.11041,-0.139856 0.081,-0.184017 -0.0294,-0.05151 -0.0294,-0.08833 0.007,-0.08833 0.0294,0 0.17667,-0.0736 0.31652,-0.154575 0.23555,-0.147216 0.2429,-0.161934 0.11041,-0.257625 -0.11777,-0.08833 -0.12513,-0.117774 -0.0294,-0.198741 0.0589,-0.04416 0.16929,-0.169299 0.25026,-0.26499 l 0.14721,-0.176652 -0.16929,0.04416 c -0.15458,0.03682 -0.1693,0.02209 -0.13249,-0.139851 0.0515,-0.19874 -0.0147,-0.220823 -0.22082,-0.06625 -0.19138,0.147216 -0.22819,0.139857 -0.27971,-0.05151 -0.0368,-0.161935 -0.0515,-0.154575 -0.32388,0.110414 -0.31651,0.30915 -0.38276,0.331233 -0.38276,0.132493 0,-0.323875 -0.13984,-0.198742 -0.22082,0.191375 -0.11041,0.53734 -0.13249,0.574141 -0.27971,0.441648 -0.0736,-0.05889 -0.18402,-0.125133 -0.25762,-0.147216 -0.16194,-0.05889 -0.24291,-0.272349 -0.28707,-0.77288 l -0.0368,-0.382758 0.50053,-0.147216 c 0.4858,-0.14721 0.59622,-0.228183 0.43428,-0.331233 -0.12513,-0.0736 -0.081,-0.235542 0.11777,-0.471084 0.11041,-0.139857 0.17666,-0.279708 0.14722,-0.345957 -0.022,-0.06624 0.0221,-0.198741 0.10305,-0.301791 0.19874,-0.250266 0.18401,-0.331233 -0.0442,-0.272349 l -0.18401,0.04416 0.11041,-0.272349 c 0.15458,-0.360676 0.15458,-0.360676 -0.0957,-0.176653 -0.11778,0.08833 -0.265,0.139852 -0.32388,0.117769 -0.0589,-0.02209 -0.17666,0.03682 -0.27235,0.147216 -0.10305,0.117773 -0.19874,0.161934 -0.27971,0.132491 -0.26499,-0.110408 -0.34595,-0.0736 -0.41221,0.198742 -0.0589,0.242906 -0.0957,0.279707 -0.2797,0.279707 -0.16194,0 -0.23554,-0.05151 -0.30179,-0.2061 -0.0515,-0.110409 -0.18401,-0.353316 -0.29443,-0.544692 -0.25027,-0.412206 -0.22083,-0.596223 0.11777,-0.765522 0.36068,-0.184017 0.58886,-0.4122 0.47845,-0.485808 -0.0736,-0.04416 -0.0662,-0.10305 0.0368,-0.287067 0.0662,-0.125133 0.10305,-0.257631 0.081,-0.294432 -0.022,-0.03682 0.0662,-0.2061 0.19138,-0.382757 0.21346,-0.294432 0.19138,-0.463726 -0.0442,-0.272349 -0.14722,0.132491 -0.21346,0.03682 -0.19137,-0.279709 l 0.0148,-0.272348 -0.21347,0.242907 c -0.14721,0.169299 -0.22082,0.220823 -0.25027,0.147216 -0.0294,-0.06625 -0.11041,-0.02209 -0.25762,0.139851 -0.23555,0.272349 -0.33859,0.30179 -0.44901,0.110415 -0.0589,-0.09569 -0.0736,0.0074 -0.081,0.40484 v 0.529974 l -0.25763,-0.15458 c -0.17666,-0.10305 -0.35332,-0.31651 -0.55206,-0.677184 l -0.28706,-0.522615 0.23553,-0.125133 c 0.13251,-0.06624 0.3386,-0.2061 0.45637,-0.309151 0.18403,-0.154575 0.19874,-0.184017 0.081,-0.191381 -0.12513,0 -0.13249,-0.03682 -0.081,-0.390118 0.0884,-0.640383 0.081,-0.677189 -0.0442,-0.655106 -0.081,0.0074 -0.13985,-0.05888 -0.16929,-0.220825 l -0.0515,-0.242901 -0.11041,0.257626 c -0.10304,0.235541 -0.11777,0.242906 -0.19138,0.117773 -0.0736,-0.125133 -0.0883,-0.117773 -0.18401,0.11041 -0.0883,0.220823 -0.11778,0.235541 -0.17667,0.117773 -0.1104,-0.19874 -0.19873,-0.147216 -0.25762,0.132493 -0.022,0.139851 -0.0883,0.257624 -0.13986,0.257624 -0.0515,0 -0.13249,0.05151 -0.18401,0.11041 -0.0883,0.10305 -0.11041,0.09569 -0.25763,-0.03682 -0.0884,-0.08833 -0.22082,-0.287067 -0.29443,-0.449007 l -0.13249,-0.287067 0.23554,-0.294432 c 0.22082,-0.272343 0.24291,-0.345951 0.25763,-0.883289 0.007,-0.397477 -0.0148,-0.596218 -0.0736,-0.618301 -0.0662,-0.02209 -0.0736,-0.110409 -0.0294,-0.294432 0.0957,-0.449001 -0.17666,-0.419559 -0.4122,0.04416 -0.12513,0.235541 -0.25027,0.272348 -0.25027,0.06625 0,-0.272348 -0.13985,-0.228182 -0.22818,0.06624 -0.0736,0.228183 -0.11777,0.287073 -0.22082,0.257626 -0.0957,-0.02942 -0.13986,0.0074 -0.17665,0.169299 -0.022,0.117773 -0.022,0.30179 0,0.397481 0.0883,0.353316 -0.15459,0.301791 -0.69928,-0.139857 -0.5815,-0.463724 -0.6183,-0.566774 -0.33123,-1.059942 0.19137,-0.338598 0.23554,-0.713997 0.1104,-0.934815 -0.0368,-0.06625 -0.12513,-0.316515 -0.19137,-0.559416 -0.081,-0.294432 -0.13985,-0.397482 -0.18403,-0.331238 -0.0442,0.08097 -0.081,0.08097 -0.15457,0.0074 -0.16193,-0.16194 -0.2061,-0.09569 -0.2061,0.279708 0,0.426924 -0.0736,0.471084 -0.22082,0.125133 l -0.0957,-0.235542 -0.0294,0.235542 c -0.0221,0.184017 -0.0662,0.242901 -0.18401,0.242901 -0.11778,0 -0.13986,0.02942 -0.10306,0.16194 0.0294,0.09569 0.0662,0.272348 0.0957,0.397476 0.0368,0.213465 0.0221,0.235548 -0.18402,0.287072 -0.1325,0.02942 -0.29443,0.0074 -0.39747,-0.04416 -0.27236,-0.139852 -0.86857,-0.662466 -0.86857,-0.750798 0,-0.05151 0.10304,-0.220818 0.22081,-0.375394 0.25763,-0.338598 0.27236,-0.434288 0.081,-0.625665 -0.0736,-0.0736 -0.15458,-0.287067 -0.18402,-0.478448 -0.0368,-0.220824 -0.0883,-0.338592 -0.16193,-0.338592 -0.0662,0 -0.10305,-0.0736 -0.10305,-0.2061 0,-0.404841 -0.12513,-0.412206 -0.22082,-0.0074 -0.0884,0.353316 -0.10305,0.375399 -0.1693,0.228183 -0.11041,-0.235542 -0.19874,-0.19874 -0.19874,0.08833 0,0.139851 -0.0294,0.279707 -0.0736,0.30179 -0.0368,0.02209 -0.0736,-0.0074 -0.0736,-0.0736 0,-0.06625 -0.0442,-0.110414 -0.0883,-0.08833 -0.0957,0.02942 -0.10306,0.176658 -0.0442,0.824406 0.022,0.279707 0.007,0.294426 -0.16193,0.272343 -0.10304,-0.01474 -0.50789,-0.176658 -0.89801,-0.360675 -0.80968,-0.382758 -0.83176,-0.419559 -0.55941,-0.978975 0.11041,-0.235548 0.16194,-0.47109 0.16194,-0.831765 0,-0.507891 -0.11778,-0.78024 -0.24291,-0.57414 -0.081,0.125133 -0.12513,0.04416 -0.19874,-0.323874 l -0.0515,-0.294426 -0.0957,0.220818 c -0.0957,0.213465 -0.10304,0.213465 -0.14721,0.05151 -0.0736,-0.257626 -0.16194,-0.191377 -0.22082,0.169299 -0.0515,0.368039 -0.081,0.390117 -0.22083,0.19874 -0.0883,-0.110408 -0.0957,-0.09569 -0.10305,0.154576 0,0.257624 -0.007,0.272349 -0.19873,0.228183 -0.16931,-0.04416 -0.18403,-0.03682 -0.13986,0.08833 0.30179,0.736075 0.30179,0.72871 0.12513,0.905367 l -0.16193,0.161941 -0.61831,-0.2061 c -0.57414,-0.184023 -0.62566,-0.213465 -0.62566,-0.390123 0,-0.10305 0.0515,-0.257625 0.11041,-0.338592 0.10305,-0.132493 0.16194,-0.765517 0.0662,-0.765517 -0.022,0 -0.10304,0.03682 -0.18402,0.0736 -0.13249,0.0736 -0.13985,0.05151 -0.13985,-0.294425 0,-0.382759 -0.0883,-0.485809 -0.18402,-0.2061 -0.0442,0.139851 -0.0662,0.10305 -0.10305,-0.176659 -0.0589,-0.434282 -0.12514,-0.500531 -0.23555,-0.250265 -0.11777,0.250265 -0.22082,0.242901 -0.16929,-0.01474 0.022,-0.11041 0.007,-0.279709 -0.0368,-0.382759 -0.0442,-0.110409 -0.0736,-0.139856 -0.0736,-0.06625 -0.007,0.06625 -0.081,0.345958 -0.16929,0.625665 -0.13249,0.397482 -0.19875,0.507891 -0.29444,0.485808 -0.0736,-0.01474 -0.13249,0.01474 -0.13249,0.05889 0,0.125133 0.27235,0.625658 0.39748,0.728708 0.13986,0.117775 0.14722,0.228183 0.022,0.404842 -0.0957,0.125133 -0.12513,0.125133 -0.50053,0.02209 -0.22082,-0.06624 -0.72135,-0.176658 -1.11148,-0.242902 -0.87592,-0.15458 -0.92744,-0.176657 -0.76551,-0.40484 0.16929,-0.242907 0.14722,-0.338598 -0.081,-0.449007 -0.28707,-0.132492 -0.31651,-0.441648 -0.0662,-0.559416 0.26499,-0.117773 0.55205,-0.588858 0.59622,-0.971621 0.081,-0.618301 -0.32388,-1.09675 -0.97898,-1.162992 l -0.36804,-0.02942 0.10306,-0.301792 c 0.13249,-0.375393 0.0294,-0.552051 -0.21347,-0.382757 -0.0883,0.05889 -0.22082,0.110414 -0.30179,0.110414 -0.13249,0 -0.13249,-0.03682 -0.0957,-0.544697 0.0515,-0.610942 -0.007,-0.736075 -0.36804,-0.691909 -0.1693,0.01474 -0.21345,0.05889 -0.22818,0.264984 -0.022,0.213465 -0.0442,0.235548 -0.22082,0.191382 -0.11041,-0.02942 -0.29443,-0.139856 -0.40484,-0.257624 -0.19138,-0.198742 -0.22082,-0.2061 -0.40485,-0.110415 -0.1104,0.05889 -0.26498,0.169299 -0.33859,0.257631 -0.19874,0.220818 -0.32387,0.191375 -0.39748,-0.08098 -0.0663,-0.264984 -0.2061,-0.331233 -0.39747,-0.191375 z m 0.82439,7.449072 c 0,0.0736 -0.11776,0.30915 -0.27233,0.50789 -0.58887,0.831765 -0.80233,1.692972 -0.57415,2.362798 0.0736,0.213464 0.10306,0.456365 0.081,0.588863 -0.0294,0.125133 -0.0442,0.279708 -0.0442,0.338592 0.0221,0.824406 -0.022,1.030506 -0.22082,1.030506 -0.35331,0 -0.50788,0.765516 -0.21346,1.074666 0.13986,0.147216 0.14722,0.191382 0.0663,0.426924 -0.0515,0.154575 -0.0663,0.397482 -0.0368,0.596217 0.0442,0.264989 0.0294,0.331233 -0.0589,0.331233 -0.0589,0 -0.14721,-0.05151 -0.19874,-0.11041 -0.14722,-0.176657 -0.2061,-0.132491 -0.29442,0.184017 -0.0442,0.154576 -0.11042,0.309157 -0.14722,0.33124 -0.10305,0.06624 -0.65511,-0.33124 -0.77288,-0.544698 -0.0515,-0.10305 -0.2061,-0.47109 -0.3386,-0.817041 -0.19874,-0.522615 -0.31651,-0.699273 -0.68455,-1.074672 -0.449,-0.449002 -0.63302,-0.544692 -1.49422,-0.765516 -0.36804,-0.09569 -0.75816,-0.397482 -0.75816,-0.596217 0,-0.08097 -0.0442,-0.206106 -0.0884,-0.287073 -0.13249,-0.2061 0.007,-0.404841 0.27972,-0.404841 0.16928,0 0.23554,0.05151 0.3165,0.235548 0.12514,0.287067 0.27236,0.30915 0.39013,0.05888 0.0589,-0.132493 0.0589,-0.235543 -0.0147,-0.404842 -0.1325,-0.30915 -0.34596,-0.441647 -0.72872,-0.441647 -0.27971,0 -0.36067,0.03682 -0.58886,0.279713 -0.25027,0.257626 -0.28707,0.272344 -0.52998,0.21346 -0.19138,-0.04416 -0.34595,-0.02942 -0.52997,0.05151 -0.27234,0.110409 -0.56677,0.485808 -0.56677,0.72135 0,0.09569 -0.0589,0.132498 -0.22083,0.132498 -0.47844,0 -0.88328,0.404841 -0.88328,0.88329 0,0.125133 -0.0442,0.147209 -0.33124,0.147209 -0.41956,0 -0.81704,0.316515 -0.89065,0.721357 -0.0589,0.345956 -0.15457,0.456366 -0.37539,0.456366 -0.44164,0 -0.69192,0.279708 -0.79497,0.890648 -0.0368,0.2061 -0.0957,0.279709 -0.28707,0.345958 -0.30178,0.110408 -0.4858,0.426923 -0.4858,0.839123 0,0.404841 -0.11041,0.559416 -0.44165,0.588858 -0.2429,0.02209 -0.25763,0.0074 -0.29443,-0.242906 -0.0515,-0.390118 -0.47109,-0.728709 -0.89064,-0.728709 -0.61095,0 -1.22189,0.559415 -1.14092,1.030499 0.12512,0.699274 0.12512,0.713997 -0.0294,0.758158 -0.26499,0.06625 -0.16193,0.19874 0.3386,0.434283 0.26498,0.125133 0.52998,0.30179 0.59622,0.40484 0.11041,0.16194 0.10305,0.184023 -0.0515,0.353316 -0.16931,0.176658 -0.16931,0.191382 -0.0515,0.441648 0.13249,0.272349 0.58885,0.647742 1.00842,0.824401 0.13985,0.06625 0.38275,0.228183 0.53733,0.36068 0.14722,0.139851 0.30179,0.250266 0.3386,0.250266 0.0368,0 0.25762,0.257625 0.4858,0.566775 0.23555,0.316509 0.74344,0.890649 1.1262,1.273407 l 0.69191,0.699273 -0.0368,0.353316 c -0.0442,0.471084 -0.10305,0.522609 -0.52261,0.4122 -0.18402,-0.04416 -0.53733,-0.06625 -0.77288,-0.05151 -0.92745,0.06624 -1.36174,0.647748 -1.47215,1.957956 -0.081,0.934815 -0.22082,1.236606 -0.66983,1.464789 -0.58885,0.301791 -1.22188,0.169299 -2.05364,-0.434283 -1.45743,-1.059947 -1.38383,-1.015781 -1.83283,-1.015781 -0.28706,0 -0.53733,0.05889 -0.79495,0.176657 l -0.3754,0.176658 -0.0442,-0.67719 c -0.0442,-0.655106 -0.007,-2.738195 0.0589,-3.319694 0.0515,-0.419565 0.21346,-1.082032 0.30915,-1.251324 0.13985,-0.250266 0.39012,-1.052589 0.39012,-1.243971 0,-0.10305 0.0662,-0.294426 0.14722,-0.426918 0.081,-0.132498 0.14721,-0.301791 0.14721,-0.382759 0,-0.0736 0.0662,-0.242906 0.13985,-0.368039 0.0736,-0.125133 0.16194,-0.331233 0.18402,-0.456366 0.0294,-0.125133 0.1325,-0.338592 0.23555,-0.478449 0.0957,-0.132492 0.17666,-0.279708 0.17666,-0.323874 0,-0.05151 0.0662,-0.147216 0.14722,-0.220823 0.0736,-0.06624 0.18401,-0.250261 0.22818,-0.397477 0.0515,-0.147216 0.14721,-0.345956 0.22081,-0.441642 0.081,-0.09569 0.13986,-0.206106 0.13986,-0.242907 0,-0.06625 0.25763,-0.404841 0.70663,-0.934815 0.12513,-0.147216 0.28707,-0.382758 0.36068,-0.522614 0.0736,-0.139852 0.2429,-0.353316 0.3754,-0.463726 0.13985,-0.117773 0.25027,-0.250266 0.25762,-0.294432 0,-0.05151 0.18402,-0.235541 0.40484,-0.419558 0.89065,-0.721356 1.25133,-1.052589 1.35437,-1.221883 0.0589,-0.09569 0.16931,-0.176657 0.25027,-0.176657 0.0736,0 0.24291,-0.117775 0.3754,-0.257631 0.13249,-0.139851 0.33124,-0.272344 0.43428,-0.301785 0.11042,-0.02209 0.25762,-0.132498 0.31652,-0.228183 0.0662,-0.103057 0.26499,-0.250266 0.43428,-0.323875 0.17666,-0.0736 0.35332,-0.19874 0.39748,-0.279707 0.0442,-0.08833 0.13985,-0.154576 0.21347,-0.154576 0.13984,0 0.9937,-0.397481 1.18508,-0.552057 0.0589,-0.05151 0.22081,-0.110414 0.35331,-0.139856 0.13985,-0.02209 0.34595,-0.125133 0.47108,-0.228183 0.11778,-0.10305 0.30916,-0.184017 0.41957,-0.184017 0.11041,0 0.26498,-0.05151 0.34596,-0.11041 0.0736,-0.05889 0.24289,-0.110415 0.36067,-0.110415 0.12513,0 0.33124,-0.06624 0.46373,-0.147215 0.13249,-0.08097 0.36804,-0.14721 0.51524,-0.14721 0.15458,0 0.34596,-0.04416 0.41957,-0.10305 0.0736,-0.05151 0.19874,-0.08097 0.27235,-0.05889 0.0736,0.01474 0.21345,-0.02209 0.31651,-0.08833 0.0957,-0.06625 0.23554,-0.117774 0.30916,-0.117774 0.0736,0 0.22818,-0.05151 0.34595,-0.110409 0.11041,-0.05889 0.33123,-0.110415 0.47844,-0.110415 0.15458,0 0.3386,-0.04416 0.41957,-0.10305 0.081,-0.05888 0.22082,-0.08833 0.33859,-0.06624 0.10306,0.02209 0.31651,-0.0074 0.47845,-0.05889 0.15458,-0.05151 0.4122,-0.103051 0.57413,-0.110409 0.16194,-0.01474 0.48582,-0.02942 0.714,-0.04416 0.22818,-0.01474 0.44164,-0.05151 0.47109,-0.08097 0.0294,-0.02209 0.25762,-0.04416 0.51525,-0.02942 0.40483,0.01474 0.47108,0.03682 0.47108,0.154574 z m 2.53947,-0.07361 c 0.16193,0.01474 0.47844,0.06625 0.69927,0.110409 0.22082,0.04416 0.57413,0.09569 0.78759,0.110415 0.20611,0.01474 0.44902,0.0736 0.53734,0.117774 0.0957,0.05151 0.27235,0.06624 0.41956,0.03682 0.17667,-0.02942 0.30916,-0.0074 0.43429,0.0736 0.0957,0.05889 0.31651,0.147216 0.49317,0.176658 0.16929,0.03682 0.48581,0.10305 0.69927,0.147216 0.21346,0.04416 0.449,0.110409 0.52997,0.154575 0.0736,0.03682 0.25027,0.07361 0.39749,0.07361 0.13984,0 0.2797,0.03682 0.30178,0.0736 0.0221,0.04416 0.19138,0.11041 0.36068,0.154575 0.17666,0.04416 0.47845,0.191377 0.67719,0.331233 0.19138,0.139852 0.39011,0.250266 0.44164,0.250266 0.2429,0 1.70769,0.669826 2.05364,0.942175 0.11042,0.08833 0.265,0.176657 0.35333,0.2061 0.0883,0.02942 0.28707,0.161934 0.44164,0.294431 0.14722,0.139852 0.3386,0.250261 0.4122,0.250261 0.081,0 0.1693,0.03682 0.19138,0.07361 0.0294,0.04416 0.21346,0.169299 0.41957,0.287073 0.20609,0.117768 0.58149,0.4122 0.82439,0.655107 0.25027,0.235542 0.50053,0.463725 0.57414,0.500526 0.11042,0.05889 0.59622,0.603582 1.11148,1.236606 0.1104,0.132492 0.19873,0.287067 0.19873,0.323873 0,0.04417 0.11778,0.169299 0.25763,0.279709 0.13985,0.10305 0.25763,0.250266 0.25763,0.316509 0,0.06625 0.11041,0.235548 0.25026,0.368039 0.13986,0.132493 0.27235,0.331233 0.30179,0.441643 0.0294,0.10305 0.12513,0.287072 0.21346,0.412205 0.1693,0.235543 0.55942,1.067307 0.55942,1.207164 0,0.04416 0.11042,0.206095 0.2429,0.35331 0.34596,0.397482 0.53734,0.750798 0.59623,1.118832 0.0221,0.176664 0.11041,0.434289 0.18401,0.588864 0.26498,0.507891 0.3754,0.8244 0.3754,1.059942 0,0.132498 0.0589,0.323875 0.12514,0.419565 0.0662,0.09569 0.15457,0.338593 0.18401,0.529974 0.0294,0.191382 0.0957,0.529974 0.13985,0.736074 0.0368,0.213459 0.0736,0.743433 0.0662,1.177722 -0.007,0.610935 0.0148,0.8244 0.10305,0.964257 0.0957,0.139851 0.10304,0.220818 0.0515,0.375393 -0.0515,0.125133 -0.0515,0.441647 -0.007,0.905373 0.0662,0.684549 0.0221,1.082031 -0.15458,1.553115 -0.0368,0.09569 -0.0662,0.301791 -0.0662,0.46373 0,0.161934 -0.0662,0.419565 -0.14721,0.581499 -0.081,0.161934 -0.14722,0.375394 -0.14722,0.478449 0,0.10305 -0.0442,0.301786 -0.10305,0.434283 -0.0515,0.132492 -0.12513,0.441642 -0.15458,0.691908 -0.0294,0.250266 -0.0957,0.485809 -0.15457,0.529975 -0.0515,0.05151 -0.16193,0.264984 -0.25027,0.485807 -0.081,0.220825 -0.26498,0.57414 -0.40484,0.787599 -0.13984,0.206106 -0.25762,0.419565 -0.25762,0.47109 0,0.05151 -0.25027,-0.05151 -0.56677,-0.242907 -0.32388,-0.191376 -0.95691,-0.471084 -1.44271,-0.625659 -0.47845,-0.16194 -0.96426,-0.338597 -1.07468,-0.390123 -0.3165,-0.169293 -0.75815,-0.691907 -1.09674,-1.310213 -0.4122,-0.750793 -0.77288,-1.126192 -1.19244,-1.236607 -0.18402,-0.04416 -0.55206,-0.228176 -0.81704,-0.404835 -0.77289,-0.50789 -1.3323,-0.647747 -2.89278,-0.736073 -0.47844,-0.02942 -0.94953,-0.0736 -1.0305,-0.110415 -0.0884,-0.02942 -0.30179,-0.272349 -0.46373,-0.529974 -0.16929,-0.264984 -0.55941,-0.713992 -0.8612,-1.001059 -0.56678,-0.537333 -0.94218,-0.71399 -1.78866,-0.861206 -0.27235,-0.04416 -0.30915,-0.0736 -0.35332,-0.301791 -0.081,-0.456366 0.2797,-1.280772 0.77288,-1.759215 0.18402,-0.184023 0.32386,-0.26499 0.35331,-0.213465 0.0294,0.04416 0.57414,0.353316 1.21453,0.691908 0.8244,0.441648 1.15563,0.655107 1.15563,0.750798 0,0.139851 0.34596,0.353316 0.57415,0.353316 0.081,0 0.43427,0.132492 0.79495,0.287067 0.7876,0.353316 1.7077,0.610941 2.03156,0.581499 0.24291,-0.02209 0.25027,-0.03682 1.14093,-2.046288 0.50052,-1.111467 0.94217,-2.156696 0.98633,-2.318631 0.0442,-0.16194 0.11041,-0.331233 0.14722,-0.375399 0.0368,-0.04416 0.33859,-0.169299 0.67718,-0.279708 0.6183,-0.2061 1.80338,-0.875925 1.89172,-1.074666 0.0294,-0.05889 0.11041,-0.220824 0.17665,-0.353315 0.0736,-0.132498 0.11041,-0.287074 0.0957,-0.338593 -0.0221,-0.05889 -0.007,-0.132498 0.0368,-0.176664 0.0589,-0.05888 0.0294,-0.10305 -0.11778,-0.161934 -0.1104,-0.03682 -0.23554,-0.0736 -0.27235,-0.0736 -0.0442,0 -0.12513,-0.05151 -0.19138,-0.117768 -0.10304,-0.103055 -0.0957,-0.125138 0.0442,-0.279714 0.17666,-0.191376 0.19139,-0.264984 0.0589,-0.264984 -0.0589,0 -0.15458,-0.05888 -0.22082,-0.132492 -0.11778,-0.125133 -0.11042,-0.154575 0.0589,-0.382758 0.19137,-0.257631 0.2429,-0.412206 0.1104,-0.331233 -0.13985,0.08097 -0.16194,-0.169299 -0.0368,-0.360681 0.11777,-0.184017 0.11777,-0.2061 -0.0442,-0.537333 -0.14722,-0.294426 -0.2061,-0.353315 -0.36068,-0.331232 -0.10306,0.0074 -0.26499,0.125132 -0.36804,0.257624 -0.10305,0.125133 -0.24291,0.287067 -0.30915,0.345957 -0.0736,0.05888 -0.19873,0.169293 -0.27971,0.242901 -0.13249,0.110415 -0.19138,0.117774 -0.43428,0.04416 -0.27971,-0.08097 -0.27971,-0.08833 -0.24291,-0.404841 0.0294,-0.272349 0.007,-0.338592 -0.16194,-0.493167 -0.10304,-0.09569 -0.33859,-0.220823 -0.50789,-0.272349 l -0.3165,-0.08833 V 63.43338 c 0.007,-0.316515 -0.0221,-0.390117 -0.19875,-0.544697 -0.13985,-0.117769 -0.29442,-0.176659 -0.4858,-0.176659 -0.26499,0 -0.27235,-0.0074 -0.24291,-0.220818 0.0442,-0.30915 -0.27971,-0.736074 -0.55942,-0.736074 -0.27235,0 -0.35331,-0.0736 -0.4122,-0.345957 -0.11041,-0.485808 -0.60358,-0.787599 -0.98634,-0.610941 -0.26498,0.117774 -0.27234,0.110409 -0.2429,-0.184017 0.0148,-0.213465 -0.0294,-0.309155 -0.23555,-0.515255 -0.32387,-0.323875 -0.70663,-0.353316 -0.94953,-0.0736 -0.20611,0.242907 -0.28707,0.235548 -0.23555,-0.02942 0.081,-0.397476 -0.30915,-0.890649 -0.70662,-0.890649 -0.31652,0.0074 -0.66248,0.36804 -0.52262,0.544698 0.0736,0.08833 0.11778,0.08833 0.30179,-0.01474 0.19875,-0.117769 0.22083,-0.110409 0.36068,0.01474 0.27235,0.250261 0.16929,0.758151 -0.23555,1.13355 -0.11041,0.10305 -0.4122,0.228183 -0.74343,0.309156 -0.30179,0.08097 -0.72135,0.213459 -0.92745,0.301785 -0.65511,0.279708 -1.25133,1.126197 -1.25133,1.773939 0,0.316515 -0.1693,0.669831 -0.43429,0.890655 -0.36067,0.301791 -0.52261,0.235542 -0.52261,-0.213465 0,-0.2061 -0.0515,-0.220824 -0.22818,-0.05888 -0.19138,0.169299 -0.39012,0.08097 -0.33124,-0.154576 0.0294,-0.10305 0,-0.30179 -0.0662,-0.449006 -0.16194,-0.390118 -0.13986,-0.728716 0.0515,-0.912733 0.0883,-0.08097 0.18402,-0.147216 0.22082,-0.147216 0.0294,0 0.0589,-0.09569 0.0589,-0.213458 0,-0.382759 -0.41221,-0.64039 -0.66248,-0.412207 -0.0736,0.06625 -0.16929,0.103057 -0.20609,0.08098 -0.11778,-0.06625 -0.23555,-0.677191 -0.19138,-0.920098 0.0294,-0.132491 0.0148,-0.272343 -0.0368,-0.331233 -0.0663,-0.0736 -0.0736,-0.316508 -0.0368,-0.831765 0.0368,-0.633023 0.022,-0.772874 -0.11778,-1.140914 -0.0883,-0.235542 -0.30179,-0.6183 -0.48581,-0.861208 -0.17665,-0.235541 -0.32386,-0.50789 -0.32386,-0.596217 0,-0.154574 0.0221,-0.154574 0.50052,-0.117773 0.27235,0.01474 0.62567,0.05151 0.7876,0.0736 z m 6.64674,3.444827 c 0.12514,0.125133 0.11042,0.581499 -0.0294,0.780241 -0.18402,0.264984 -0.64774,0.456365 -1.67824,0.677189 -0.52998,0.110409 -1.05995,0.242902 -1.18508,0.294426 -0.58151,0.220825 -1.05995,0.750798 -1.28077,1.420624 -0.0515,0.147216 -0.12514,0.272348 -0.16194,0.272348 -0.0883,0 -0.081,-0.02209 0.0515,-0.588858 0.22083,-0.942174 0.66982,-1.361739 1.73713,-1.619364 0.72135,-0.176658 1.01579,-0.316514 1.30286,-0.618299 0.13985,-0.154581 0.19873,-0.169299 0.32387,-0.110415 0.1325,0.0736 0.26499,-0.0074 0.27234,-0.161934 0,-0.02942 0.0662,-0.132493 0.15458,-0.242908 0.16194,-0.2061 0.35331,-0.242901 0.49317,-0.10305 z m -16.19363,0.198742 c 0.0515,0.02942 0.11777,0.154574 0.15458,0.264984 0.0294,0.117773 0.13986,0.264989 0.2429,0.331238 0.0957,0.05888 0.31652,0.2061 0.47845,0.31651 0.16194,0.110408 0.5815,0.279707 0.92746,0.375398 0.78024,0.2061 1.14827,0.441643 1.48686,0.956898 0.26499,0.397477 0.58886,1.140915 0.52262,1.199799 -0.0221,0.02209 -0.15458,-0.154575 -0.30179,-0.382758 -0.62567,-0.964257 -1.05995,-1.266048 -2.12726,-1.464789 -0.77287,-0.147216 -1.37646,-0.368039 -1.63408,-0.588858 -0.25763,-0.213465 -0.3386,-0.824405 -0.13985,-0.978981 0.15457,-0.110408 0.25762,-0.117773 0.39011,-0.02942 z m 17.45233,0.846483 c 0.23554,0.279707 -0.11042,0.87593 -0.61831,1.08203 -0.12513,0.05151 -0.79496,0.11041 -1.54576,0.139857 -1.20715,0.04416 -1.36909,0.06624 -1.72977,0.235542 -0.45637,0.2061 -0.97161,0.691909 -1.18508,1.104114 -0.14722,0.287067 -0.28707,0.368034 -0.28707,0.169293 0,-0.169293 0.33124,-0.853847 0.57414,-1.18508 0.29443,-0.404842 0.55942,-0.51525 1.69297,-0.684549 0.97163,-0.154576 1.25133,-0.242902 1.67825,-0.566776 0.26499,-0.2061 0.36804,-0.220824 0.42692,-0.06625 0.0662,0.184023 0.24291,0.125133 0.3386,-0.110409 0.15458,-0.375399 0.40484,-0.419565 0.65511,-0.117774 z m -18.59324,0.272349 c 0.11041,0.279707 0.13985,0.30179 0.31651,0.257625 0.14721,-0.03682 0.30915,0.0074 0.61094,0.169298 0.43428,0.228184 0.93481,0.36804 1.82547,0.522615 0.6183,0.103051 0.9937,0.338592 1.33965,0.839124 0.35332,0.507891 0.28707,0.669825 -0.11041,0.257625 -0.11778,-0.125133 -0.4122,-0.331233 -0.65511,-0.456365 -0.39748,-0.2061 -0.52261,-0.228183 -1.21452,-0.257626 -0.42692,-0.01474 -0.86857,-0.05889 -0.97898,-0.10305 -0.15457,-0.05889 -0.22818,-0.05889 -0.29443,0.0074 -0.25762,0.257626 -1.05258,-0.147216 -1.30285,-0.662466 -0.081,-0.176657 -0.14721,-0.375399 -0.14721,-0.441647 0,-0.117769 0.31651,-0.434283 0.44164,-0.434283 0.0294,0 0.10305,0.139857 0.1693,0.301791 z m 19.66055,0.824405 c 0.13984,0.228184 -0.16194,0.640384 -0.66247,0.898008 -0.40484,0.213465 -0.45637,0.220824 -1.34702,0.213465 -0.5079,-0.0074 -1.31021,-0.02209 -1.77394,-0.03682 -0.94954,-0.02942 -1.45743,0.08833 -1.76658,0.4122 -0.0957,0.10305 -0.19874,0.184017 -0.23553,0.184017 -0.24291,0 0.2797,-0.669824 0.73606,-0.942173 0.34595,-0.198736 0.35332,-0.198736 1.7445,-0.198736 1.31021,0 1.42062,-0.01474 1.7813,-0.176658 0.21346,-0.09569 0.41956,-0.213465 0.47108,-0.272349 0.0442,-0.05888 0.15458,-0.08097 0.27971,-0.05888 0.13249,0.02942 0.23555,0 0.3018,-0.08098 0.11777,-0.14721 0.36067,-0.117768 0.47109,0.05889 z m -20.80147,0.09569 c 0.0883,0.05889 0.16194,0.169299 0.16194,0.242906 0,0.06625 0.0442,0.191382 0.10305,0.26499 0.10305,0.139852 0.11041,0.139852 0.19874,-0.05889 0.0515,-0.110409 0.11041,-0.19874 0.13985,-0.19874 0.0294,0 0.25026,0.117773 0.47845,0.25763 0.23555,0.139852 0.48581,0.272343 0.55942,0.294426 0.16194,0.05151 0.20609,0.184017 0.13249,0.382759 -0.0736,0.19874 -0.21346,0.2061 -1.0673,0.08833 -0.90537,-0.125133 -1.35439,-0.426924 -1.35439,-0.905373 0,-0.242906 0.18402,-0.485807 0.36068,-0.485807 0.0662,0 0.19874,0.05151 0.28707,0.117768 z m 21.73628,0.817046 c 0.17665,0.463725 -0.31651,0.98634 -1.04523,1.111473 -0.71399,0.125133 -1.24396,0.169293 -1.24396,0.117768 0,-0.03682 0.31651,-0.449001 0.50053,-0.640383 0.0294,-0.02942 0.22818,-0.169299 0.44164,-0.316515 0.36068,-0.242901 0.40484,-0.25026 0.52261,-0.14721 0.11778,0.110409 0.13985,0.09569 0.28707,-0.10305 0.2061,-0.279708 0.43429,-0.287073 0.53734,-0.02209 z m -17.97494,0.09569 c 0.17666,0.08097 0.38276,0.147216 0.46372,0.147216 0.3018,0 0.97899,0.574139 0.83914,0.71399 -0.022,0.02209 -0.28708,-0.06624 -0.58887,-0.191376 -0.47108,-0.191381 -0.64038,-0.228183 -1.17035,-0.228183 -0.77289,0 -0.86121,-0.02942 -0.86121,-0.294431 0,-0.184017 0.0294,-0.21346 0.24291,-0.242902 0.52261,-0.06625 0.76552,-0.04416 1.07466,0.09569 z m -5.02738,0.206105 c 0.0515,0.02942 0.13985,0.176658 0.19873,0.323868 0.13986,0.338598 0.23555,0.353316 0.38277,0.05889 0.0662,-0.125133 0.13248,-0.220824 0.14721,-0.220824 0.0221,0 0.25026,0.117774 0.52262,0.257625 0.39747,0.213465 0.55941,0.257626 0.93481,0.257626 0.66982,0 1.00842,0.213464 0.75079,0.471089 -0.10305,0.09569 -0.30915,0.117774 -1.27341,0.117774 -0.63302,0 -1.27341,-0.03682 -1.42798,-0.07361 -0.30915,-0.08833 -0.79496,-0.588864 -0.79496,-0.824406 0,-0.301791 0.33123,-0.52261 0.55942,-0.368034 z m 23.86352,0.765516 c 0.1325,0.132492 0.10306,0.456366 -0.0589,0.633024 -0.54469,0.581499 -2.00948,0.691908 -3.93799,0.30915 -0.60358,-0.125133 -1.22925,-0.294427 -1.38382,-0.368034 -0.20611,-0.110415 -0.31651,-0.132498 -0.41957,-0.0736 -0.0736,0.03682 -0.32387,0.0736 -0.55205,0.0736 -0.25763,0 -0.55206,0.05888 -0.77288,0.154575 -0.41956,0.184017 -0.64775,0.154575 -0.34595,-0.03682 0.1104,-0.0736 0.39011,-0.21346 0.6183,-0.301792 0.3754,-0.154575 0.44164,-0.161934 0.54469,-0.06624 0.10305,0.09569 0.13249,0.09569 0.21347,-0.0074 0.11777,-0.139851 0.2797,-0.139851 1.45743,0.03682 1.05257,0.154576 2.45847,0.191377 2.88541,0.0736 0.14721,-0.03682 0.37539,-0.15457 0.51524,-0.257625 0.21346,-0.154575 0.25763,-0.169294 0.31652,-0.0736 0.081,0.15458 0.22082,0.139856 0.38276,-0.03682 0.14721,-0.161934 0.40484,-0.191382 0.53733,-0.05889 z m -24.79098,0.456366 c 0,0.05888 0.0368,0.198741 0.081,0.316509 l 0.0736,0.198742 0.14722,-0.228183 0.14722,-0.235543 0.37539,0.235543 0.38276,0.235547 1.2366,-0.0074 c 0.68455,-0.0074 1.2366,0.01469 1.2366,0.05151 0,0.139857 0.32388,0.05889 0.76553,-0.191376 0.39747,-0.220824 0.52997,-0.257625 0.94953,-0.257625 0.5447,0 0.71399,0.04416 0.71399,0.191376 0,0.06625 -0.0883,0.10305 -0.25762,0.10305 -0.40484,0 -1.32494,0.206106 -1.98004,0.449007 -0.32387,0.117773 -0.87594,0.264984 -1.22189,0.331233 -0.78024,0.147216 -1.92115,0.117773 -2.24503,-0.06625 -0.26497,-0.147211 -0.92008,-0.750792 -0.92008,-0.853842 0,-0.10305 0.30179,-0.375399 0.41955,-0.375399 0.0515,0 0.0957,0.04416 0.0957,0.10305 z m 20.86771,0.898008 c 0.56677,0.154581 0.97898,0.2061 1.79602,0.228183 1.14092,0.04416 1.5384,-0.02209 1.82547,-0.287067 0.17665,-0.161934 0.16193,-0.176658 0.27971,0.198741 0.0515,0.169299 0.17665,0.132492 0.39011,-0.110414 0.22818,-0.257626 0.38275,-0.279703 0.51526,-0.0736 0.081,0.139851 0.0589,0.191376 -0.27972,0.51525 -0.2429,0.235542 -0.36803,0.419559 -0.36803,0.537333 0,0.161939 -0.0368,0.184017 -0.39013,0.228183 -0.90537,0.10305 -2.56889,-0.191376 -3.75398,-0.662466 -0.36067,-0.147216 -0.72134,-0.250266 -0.79495,-0.228183 -0.0883,0.02209 -0.1693,-0.01474 -0.21346,-0.10305 -0.0442,-0.0736 -0.16194,-0.161934 -0.25763,-0.184023 -0.2061,-0.05151 -0.19874,-0.04416 -0.13985,-0.213458 0.0589,-0.154576 0.31651,-0.125133 1.39118,0.154574 z m -14.61108,-0.117768 c 0.11778,0.0736 0.14722,0.05889 -0.44164,0.220818 -0.18402,0.05151 -0.714,0.26499 -1.18508,0.485808 -1.08203,0.500532 -1.98741,0.750798 -2.54681,0.699273 -0.0442,-0.0074 -0.13986,-0.110409 -0.19875,-0.242901 -0.14722,-0.279714 -0.14722,-0.309156 -0.007,-0.257631 0.17666,0.0736 1.28077,-0.154575 2.37016,-0.471084 1.90643,-0.566775 1.82546,-0.552057 2.00948,-0.434283 z m -6.77188,0.662466 c 0.18402,0.257625 0.26499,0.279708 0.33124,0.0736 0.0589,-0.191382 0.0957,-0.191382 0.81703,0.08833 0.47109,0.176658 0.66247,0.294432 0.83177,0.507891 0.19874,0.242908 0.2061,0.279709 0.0957,0.323875 -0.21346,0.08833 -1.2955,0.132491 -1.74449,0.0736 l -0.41957,-0.05151 0.0368,-0.279707 c 0.0294,-0.257626 0.0148,-0.287074 -0.33124,-0.552058 -0.27971,-0.2061 -0.34596,-0.287067 -0.27235,-0.338592 0.22082,-0.139857 0.49317,-0.07361 0.65511,0.154575 z m 20.13163,0.06625 c 1.67089,0.610935 2.03157,0.736074 2.31864,0.780234 0.39748,0.06625 0.51524,0.147216 0.51524,0.375399 0,0.191381 -0.25026,0.397481 -0.4858,0.397481 -0.22818,0 -0.79496,-0.316514 -1.46479,-0.824405 -0.66982,-0.500532 -0.77288,-0.552057 -1.43534,-0.67719 -0.26499,-0.05151 -0.42693,-0.110409 -0.36804,-0.132492 0.2061,-0.08833 0.55206,-0.05151 0.92009,0.08097 z m -15.02328,0.493167 c 0.25027,0.09569 0.12514,0.301791 -0.30178,0.493167 -1.03787,0.456366 -2.48058,0.993705 -3.31234,1.221888 -0.25763,0.0736 -0.48581,0.147215 -0.50789,0.176657 -0.17666,0.169294 -0.6551,-0.05889 -0.76552,-0.360681 -0.0442,-0.10305 -0.13249,-0.176657 -0.21346,-0.176657 -0.13985,0 -0.27235,-0.117768 -0.31651,-0.287067 -0.0148,-0.0736 0.19874,-0.09569 1.08203,-0.11041 0.94217,-0.0074 1.22188,-0.04416 1.91379,-0.213464 0.44901,-0.117769 1.08939,-0.338592 1.43534,-0.493167 0.64775,-0.287073 0.79497,-0.323874 0.98634,-0.250266 z m 13.58794,0.478448 c 0.58886,0.08833 1.11883,0.331233 1.73713,0.772876 0.34595,0.242906 0.47109,0.375399 0.47109,0.500532 0,0.220823 0.0736,0.287067 0.19874,0.176657 0.081,-0.06624 0.2061,0.01469 0.63302,0.434284 0.29443,0.287072 0.72871,0.677189 0.97162,0.868566 0.24291,0.19874 0.46373,0.412205 0.49317,0.478449 0.0515,0.139856 -0.449,1.236605 -0.63302,1.398545 -0.15458,0.125133 -0.39748,0.05151 -0.82441,-0.25763 -0.19874,-0.139852 -0.74343,-0.529975 -1.20716,-0.861208 -0.46372,-0.323873 -1.15563,-0.875924 -1.53103,-1.22924 -1.27341,-1.170357 -1.20717,-1.126191 -1.86227,-1.185082 -0.36067,-0.02942 -0.63302,-0.09569 -0.714,-0.169299 -0.17665,-0.154574 -0.93481,-0.4122 -1.39117,-0.471084 -0.21346,-0.02209 -0.42692,-0.08097 -0.46373,-0.132491 -0.0662,-0.0736 0.0589,-0.110415 0.56678,-0.147216 0.35331,-0.02942 0.76552,-0.10305 0.90537,-0.154576 0.31651,-0.117773 1.98003,-0.132491 2.64987,-0.02209 z m 6.29343,0.191377 c -0.0662,0.287072 -0.38276,0.927455 -0.55942,1.155638 -0.081,0.10305 -0.21346,0.191382 -0.29443,0.191382 -0.16929,0 -0.9937,-0.375399 -1.20716,-0.552056 -0.14721,-0.117775 -0.14721,-0.117775 -0.007,-0.228183 0.081,-0.05889 0.22083,-0.10305 0.30916,-0.10305 0.18402,0 0.28707,-0.110415 0.35331,-0.382764 0.0442,-0.191376 0.0662,-0.198735 0.5815,-0.228183 0.28707,-0.0074 0.61095,-0.02942 0.70664,-0.03682 0.15457,-0.01469 0.16194,0.0074 0.11776,0.184017 z m -3.20192,0.537333 c 0.47844,0.287072 0.89801,0.552056 0.92745,0.596222 0.022,0.04416 -0.0368,0.16194 -0.13985,0.264985 -0.13249,0.139857 -0.22818,0.176658 -0.36068,0.139857 -0.22818,-0.05889 -1.56048,-1.339657 -1.49422,-1.442707 0.081,-0.125132 0.16193,-0.08833 1.0673,0.441643 z M 172.95248,67.85718 c 0,0.117773 -0.18402,0.213465 -0.69927,0.382764 -0.28706,0.08833 -0.6183,0.242901 -0.74343,0.331233 -0.17666,0.125133 -1.58256,0.6183 -1.76659,0.6183 -0.0589,0 -0.0221,-0.382759 0.0442,-0.51525 0.10305,-0.198742 0.6183,-0.478449 1.11883,-0.625665 0.714,-0.2061 2.04629,-0.331233 2.04629,-0.191382 z m -5.52056,0.500532 c -0.0148,0.147216 -0.35331,1.059948 -0.44164,1.162998 -0.0515,0.05888 -0.1325,0.110414 -0.18402,0.110414 -0.0515,0 -0.17666,0.09569 -0.27234,0.2061 -0.0957,0.11041 -0.21347,0.228183 -0.25763,0.257626 -0.19138,0.117768 -1.01578,-0.831765 -0.85385,-0.978981 0.0294,-0.02942 0.19138,-0.09569 0.35332,-0.147211 0.16194,-0.05151 0.55941,-0.220824 0.88329,-0.375398 0.59622,-0.279709 0.77287,-0.33124 0.77287,-0.235548 z m 20.30093,0.772881 c 0.13986,0 0.16194,0.02942 0.11778,0.161934 -0.0736,0.257625 -0.40485,0.787598 -0.51525,0.831764 -0.0589,0.02209 -0.29444,-0.10305 -0.52262,-0.272349 l -0.41219,-0.316508 0.16193,-0.139857 c 0.10304,-0.08097 0.28707,-0.132492 0.46372,-0.132492 0.2429,0 0.28707,-0.02209 0.25028,-0.117774 -0.0368,-0.09569 -0.0148,-0.11041 0.11776,-0.06624 0.0957,0.02942 0.24291,0.05151 0.33859,0.05151 z m -15.22937,2.568896 c 0.12513,0.04416 0.22818,0.10305 0.22818,0.125133 -0.007,0.02942 -0.61094,0.345957 -1.34702,0.699273 -0.89801,0.434283 -1.42798,0.647743 -1.59728,0.647743 -0.30179,0 -0.47844,0.117773 -0.5815,0.375399 -0.0515,0.139856 -0.15457,0.2061 -0.41955,0.272348 -0.18403,0.05151 -0.47846,0.154575 -0.64775,0.242902 -0.33124,0.169298 -1.63409,1.045229 -2.00948,1.354379 -0.19875,0.154575 -0.24291,0.169299 -0.24291,0.0736 0,-0.09569 0.15458,-0.868565 0.33124,-1.648806 0.0221,-0.09569 0.0662,-0.147216 0.10304,-0.132491 0.0957,0.05889 1.58257,-0.147216 1.75922,-0.242908 0.0883,-0.04416 0.25762,-0.228182 0.37539,-0.40484 0.12514,-0.176658 0.31652,-0.353316 0.42693,-0.397482 0.55206,-0.2061 0.89065,-0.279708 1.14092,-0.250266 0.21346,0.02209 0.27234,0 0.30914,-0.110409 0.0368,-0.110415 0.24291,-0.2061 0.80233,-0.375399 0.4122,-0.125133 0.83177,-0.242901 0.93481,-0.257626 0.10305,-0.01469 0.18402,-0.03682 0.19139,-0.04416 0.007,0 0.11041,0.02942 0.2429,0.0736 z m 1.95795,1.97268 c 0.10306,0.154575 0.25764,0.456366 0.3386,0.662466 0.17666,0.47109 0.15457,0.485808 -0.74343,0.419565 -0.43429,-0.02942 -0.70663,-0.02209 -0.83177,0.03682 -0.55206,0.250266 -0.27235,1.391181 0.3386,1.391181 0.16194,0 0.31651,-0.08833 0.56678,-0.323874 0.34595,-0.323869 0.58886,-0.426919 1.22188,-0.529969 l 0.30179,-0.04416 -0.0368,0.220818 c -0.0294,0.242908 -0.16194,0.309157 -0.58886,0.309157 -0.1325,0 -0.38277,0.08097 -0.55206,0.176657 -0.1693,0.09568 -0.53733,0.250261 -0.8244,0.338592 -0.64775,0.21346 -1.34702,0.559416 -2.64251,1.317574 -0.55942,0.331233 -1.09675,0.596222 -1.1998,0.596222 -0.10305,0 -0.27971,0.09569 -0.41221,0.228183 -0.12513,0.132492 -0.46371,0.331233 -0.74343,0.449001 l -0.51525,0.220824 -0.8244,-0.125133 c -0.45637,-0.06625 -0.92746,-0.10305 -1.04523,-0.08097 -0.19874,0.05151 -0.7876,-0.04416 -0.87593,-0.132492 -0.0662,-0.06625 -0.0442,-0.566781 0.0515,-1.126197 l 0.0883,-0.537333 0.33123,-0.147216 c 0.18402,-0.08097 0.36068,-0.132492 0.39012,-0.110409 0.0368,0.02209 0.25763,-0.132492 0.49317,-0.338598 0.23555,-0.213459 0.60358,-0.463724 0.82441,-0.566774 0.22081,-0.10305 0.6551,-0.390117 0.97161,-0.647743 0.7508,-0.610946 0.79496,-0.625665 1.34701,-0.603582 0.41957,0.02209 0.49318,0 0.66984,-0.161939 0.1472,-0.139852 0.62566,-0.30915 1.86226,-0.67719 0.9201,-0.272344 1.71506,-0.493167 1.75922,-0.493167 0.0515,-0.0074 0.17666,0.117773 0.27971,0.279707 z m -9.08315,0.01474 c 0.081,0.03682 0.13985,0.125133 0.13985,0.198736 0.007,0.301791 -0.75815,4.269233 -0.8612,4.482698 -0.11042,0.228183 -0.13986,0.242902 -0.51526,0.242902 -0.47844,0 -0.54469,0.10305 -0.31651,0.478449 0.12514,0.19874 0.14722,0.287072 0.081,0.353316 -0.10304,0.103049 -0.10304,0.397481 -0.007,0.456365 0.0442,0.02942 -0.081,0.176658 -0.27972,0.331233 -0.2797,0.228183 -0.53733,0.338598 -1.16299,0.51525 -0.44164,0.125133 -0.94218,0.228183 -1.10411,0.235548 -0.43428,0.0074 -0.97898,-0.309156 -1.64881,-0.971622 -0.64775,-0.633018 -1.11883,-1.295489 -1.41326,-1.987398 -0.19137,-0.47109 -0.57414,-1.825463 -0.57414,-2.068371 0,-0.147215 0.44901,-0.360674 0.78024,-0.360674 0.33123,0 0.81705,0.250266 1.47952,0.765516 0.73606,0.566781 1.07466,0.721355 1.64144,0.765521 0.54469,0.03682 0.97161,-0.05889 1.32493,-0.294432 0.449,-0.30915 0.52261,-0.478449 0.59622,-1.391181 0.0442,-0.507891 0.12513,-0.956897 0.20609,-1.140914 0.13987,-0.301792 0.5079,-0.640383 0.78025,-0.713992 0.19138,-0.05151 0.67719,0.0074 0.85385,0.10305 z m 15.51644,0.978976 c 0.22819,0.132498 0.55206,0.316515 0.72873,0.404846 0.22817,0.117769 0.44899,0.345952 0.82439,0.846483 0.53733,0.736075 0.9569,1.082026 1.45743,1.221882 0.17665,0.04416 0.77287,0.11041 1.33966,0.139857 1.28812,0.0736 1.46478,0.169293 1.86962,0.971616 l 0.26499,0.529975 -0.0442,0.853847 c -0.0442,0.817041 -0.0442,0.868566 0.13985,1.229241 0.39013,0.765517 1.10412,1.391181 1.8181,1.575198 0.21347,0.05888 0.42693,0.184023 0.58886,0.360675 0.25763,0.26499 1.32494,2.215587 1.32494,2.414328 0,0.176657 -0.72872,1.324932 -0.9201,1.450065 -0.0957,0.05888 -0.28706,0.287067 -0.43428,0.500531 -0.13985,0.21346 -0.42692,0.566776 -0.63302,0.787599 -0.2061,0.220825 -0.41956,0.485809 -0.47845,0.588859 -0.0515,0.10305 -0.19874,0.264989 -0.32388,0.360674 -0.12513,0.08833 -0.22818,0.206106 -0.22818,0.257626 0,0.05151 -0.26498,0.368039 -0.58886,0.699272 -0.32386,0.331234 -0.78023,0.809683 -1.00106,1.059949 -0.22818,0.257624 -0.49317,0.50789 -0.58886,0.559415 -0.0957,0.05151 -0.22818,0.2061 -0.28707,0.345957 -0.0589,0.147211 -0.16193,0.279708 -0.23553,0.30915 -0.0736,0.02942 -0.72135,0.633024 -1.44271,1.339656 -1.41327,1.391181 -1.67825,1.589922 -2.81917,2.105172 -0.8244,0.368034 -1.0673,0.368034 -1.20716,0.0074 -0.0368,-0.10305 -0.16194,-0.235542 -0.28707,-0.294432 -0.16194,-0.08833 -0.22818,-0.184017 -0.26499,-0.390117 -0.0221,-0.154575 -0.0883,-0.360675 -0.14722,-0.463725 -0.0957,-0.176658 -0.13249,-0.184023 -0.72135,-0.184023 -0.34595,0 -0.64775,-0.02209 -0.66982,-0.04416 -0.0221,-0.02209 0.007,-0.294432 0.0662,-0.603582 0.12513,-0.647748 0.0662,-0.898014 -0.21346,-1.008423 -0.27971,-0.10305 -0.66247,-1.023147 -0.64776,-1.538397 0.007,-0.139851 -0.0221,-0.279708 -0.0662,-0.30915 -0.11041,-0.06625 -0.40484,-0.978981 -0.6551,-2.031565 -0.25763,-1.074671 -0.46373,-1.501589 -0.98634,-2.075729 -0.39748,-0.434283 -0.39748,-0.434283 -0.33124,-0.772875 0.0883,-0.478449 0.16194,-0.588864 0.62566,-0.934815 0.54471,-0.397482 1.3323,-1.074671 2.05365,-1.76658 0.32387,-0.309155 0.70663,-0.618306 0.84649,-0.691913 0.13985,-0.0736 0.33859,-0.191377 0.43428,-0.264984 0.12514,-0.09569 0.29443,-0.139858 0.58886,-0.139858 0.66983,0 1.33966,-0.132491 1.78131,-0.360674 l 0.4122,-0.2061 0.19873,0.176657 c 0.11042,0.08833 0.22819,0.169299 0.26499,0.169299 0.11041,0 0.27971,-0.309155 0.3386,-0.625665 0.0294,-0.161934 0.14721,-0.478448 0.26498,-0.699272 0.20611,-0.382758 0.22082,-0.441642 0.18402,-1.067307 -0.0883,-1.656165 -1.07466,-3.378579 -2.54682,-4.453245 -0.42692,-0.309155 -0.51525,-0.426924 -0.39747,-0.537338 0.10304,-0.11041 0.35331,-0.04417 0.75079,0.19874 z m 7.47852,3.665651 c 0.0589,0.09569 0.17665,0.375399 0.25763,0.625665 0.25762,0.8244 0.50788,1.177716 1.19243,1.685607 0.4122,0.301791 0.84649,0.47109 2.09046,0.831765 0.33859,0.10305 0.67719,0.26499 0.94217,0.463726 0.49317,0.368039 0.53733,0.559415 0.16193,0.787598 -0.13249,0.08833 -0.28706,0.257631 -0.33858,0.375399 -0.0515,0.125133 -0.22819,0.353316 -0.39012,0.515255 -0.3386,0.345952 -0.28707,0.375394 -0.83913,-0.552056 -0.50789,-0.868572 -1.08939,-1.413264 -1.89908,-1.796022 -1.09675,-0.522615 -1.28813,-0.794958 -1.28813,-1.847546 0,-0.426925 -0.0368,-0.765516 -0.1104,-0.934815 -0.1325,-0.31651 -0.1325,-0.31651 -0.007,-0.31651 0.0589,0 0.16193,0.07361 0.22818,0.161934 z m -29.6638,1.648806 c 0.56678,0.736074 1.30286,1.243965 2.13462,1.464789 0.80232,0.2061 1.29549,0.139857 2.46585,-0.353316 1.17036,-0.485808 1.15564,-0.485808 1.77393,-0.198741 0.57415,0.257625 0.95691,0.301791 1.72242,0.184017 0.33124,-0.04416 0.44901,-0.02209 1.01578,0.213465 0.35332,0.147216 0.73608,0.264984 0.84649,0.264984 0.25027,0 0.48581,-0.228178 0.71399,-0.699267 0.13986,-0.301791 0.22083,-0.375399 0.63302,-0.559416 0.25763,-0.117774 0.58886,-0.213465 0.72872,-0.213465 0.14722,0 0.33859,-0.05151 0.42692,-0.117768 0.0883,-0.05889 0.58886,-0.206106 1.11148,-0.323874 1.21453,-0.272349 1.45006,-0.368039 2.23766,-0.890649 0.36068,-0.242906 0.66247,-0.434283 0.67719,-0.434283 0.0736,0 0.59622,0.390117 0.64775,0.485809 0.0442,0.0736 0.007,0.250259 -0.0883,0.478442 -0.14721,0.338598 -0.15457,0.375399 -0.0442,0.588864 0.11042,0.213459 0.11042,0.235542 -0.0662,0.529974 -0.10305,0.169299 -0.45636,0.603577 -0.78024,0.971616 -0.32387,0.360676 -0.73606,0.890649 -0.89801,1.177722 -0.44164,0.736073 -1.20716,2.421681 -1.33965,2.951655 -0.21346,0.839123 -0.17666,1.008422 0.46372,1.980039 0.32388,0.478449 0.34596,0.544698 0.31652,0.898014 -0.0294,0.375392 -0.0221,0.390117 0.16194,0.390117 0.16929,0 0.2429,0.110414 0.78023,1.177716 0.33123,0.66983 0.58886,1.266053 0.58886,1.39118 0,0.309156 0.0662,0.449007 0.22083,0.449007 0.0957,0 0.19138,0.139857 0.33122,0.507891 0.11042,0.279708 0.18403,0.559422 0.16194,0.625665 -0.022,0.05889 -0.16929,0.132492 -0.32387,0.154575 -0.15457,0.02209 -0.46373,0.110415 -0.68455,0.198741 -0.22082,0.08097 -0.69927,0.228183 -1.0673,0.331233 -0.36069,0.10305 -0.69192,0.213465 -0.72872,0.242907 -0.0368,0.03682 -0.007,0.213459 0.0589,0.4122 0.21347,0.640383 0.12513,0.713991 -0.30179,0.235542 -0.94953,-1.045224 -1.09675,-1.177716 -1.61936,-1.435346 -0.43429,-0.21346 -0.62567,-0.264985 -1.00107,-0.272344 -0.39011,-0.0074 -0.46372,-0.02942 -0.49316,-0.154575 -0.0221,-0.08097 -0.14722,-0.213465 -0.27971,-0.294432 -0.1325,-0.08097 -0.39012,-0.264984 -0.57414,-0.4122 -0.18403,-0.147216 -0.53733,-0.382758 -0.78024,-0.515255 -0.24291,-0.139851 -0.64038,-0.4122 -0.89065,-0.603582 -0.25026,-0.191377 -0.59622,-0.426919 -0.78024,-0.51525 -0.18401,-0.08833 -0.74343,-0.544693 -1.23661,-1.008423 -0.50053,-0.463726 -1.05258,-0.956893 -1.22188,-1.096749 -0.16929,-0.132493 -0.35331,-0.31651 -0.41219,-0.404842 -0.0589,-0.08097 -0.27971,-0.353315 -0.48582,-0.596217 -0.21346,-0.242907 -0.42691,-0.522614 -0.47845,-0.625664 -0.0515,-0.10305 -0.22082,-0.294427 -0.37539,-0.426925 -0.16193,-0.139851 -0.28707,-0.294431 -0.28707,-0.345956 0,-0.05151 -0.11777,-0.250261 -0.25763,-0.434283 -0.13985,-0.184017 -0.32387,-0.471084 -0.4122,-0.647742 -0.1693,-0.338598 -0.57414,-0.934815 -0.83912,-1.236607 -0.0957,-0.10305 -0.19139,-0.287067 -0.21347,-0.40484 -0.0294,-0.125133 -0.14721,-0.338598 -0.25763,-0.478449 -0.11776,-0.139851 -0.22818,-0.331233 -0.25762,-0.426924 -0.0294,-0.08833 -0.12513,-0.250266 -0.22082,-0.368034 -0.25763,-0.316515 -0.53733,-0.839125 -0.58886,-1.118838 -0.0221,-0.139851 -0.12514,-0.338592 -0.21346,-0.441642 -0.18402,-0.198741 -0.38276,-0.736074 -0.45636,-1.229241 -0.0294,-0.161939 -0.0957,-0.360681 -0.14722,-0.441648 -0.0589,-0.0736 -0.10305,-0.184017 -0.10305,-0.242901 0,-0.05889 0.1693,0.220818 0.38276,0.633018 0.21346,0.404842 0.48581,0.868572 0.60357,1.030506 z m 10.30504,15.229382 c 0.59622,0.72135 0.59622,0.743433 0.40485,1.317567 -0.0884,0.26499 -0.21347,0.515256 -0.27972,0.552057 -0.23553,0.110415 -1.03785,0.242906 -1.22188,0.198741 -0.10304,-0.02209 -0.19137,-0.09569 -0.19137,-0.161935 0,-0.05889 -0.0662,-0.242906 -0.15458,-0.40484 -0.13986,-0.272349 -0.13986,-0.30915 -0.0368,-0.426924 0.0662,-0.0736 0.22818,-0.419565 0.36804,-0.772881 0.13985,-0.353316 0.30915,-0.728715 0.37539,-0.83176 0.14721,-0.213464 0.11041,-0.242906 0.73607,0.529975 z"
       id="path1-1"
       style="fill:#000000;stroke:none;stroke-width:0.00736074" /></g></svg>
